/* XPM */
static char *_ac326ab0f0a4206f0948dd3dfd2fafcHUfmcMAoFgYSV9db[] = {
/* columns rows colors chars-per-pixel */
"69 63 28 1 ",
"  c None",
". c #020303",
"X c #050301",
"o c #1B0400",
"O c #100E0B",
"+ c #131313",
"@ c #3E0400",
"# c #0D2127",
"$ c #2D2D2D",
"% c #3A3A3A",
"& c #4E0700",
"* c #6C0800",
"= c #564536",
"- c #336576",
"; c #4E4E4E",
": c #7B6859",
"> c #B50E00",
", c #B50F00",
"< c #FF2F1C",
"1 c #0FA356",
"2 c #0CE675",
"3 c #A78E79",
"4 c #001AB1",
"5 c #42B5DC",
"6 c #61C8EE",
"7 c #BAAA9A",
"8 c #A0A0A0",
"9 c #B9B9B9",
/* pixels */
"                                     ooo                             ",
"                                   ..@**o                            ",
"                             oo ooo.1.*,o                            ",
"                       ooo..o*ooo*,*.2.,*o                           ",
"                      o@@.1o*@*,@@@<.1.,,o                           ",
"                      o*.2o*,@,<@,<@<..*,*o                          ",
"                      o*.1o*@@<@@,<<@<o*,,o                          ",
"                     o@*..o*@@,@*@,<@,o@*<,o                         ",
"                     o@*@o*@*@*oo*@,@*o.*<<,oo                       ",
"                     o***o@oo*o5-oo*,o.+.*<<,*o                      ",
"                    o&*,@oo-oo555--o,o+1.o,,<<,ooo                   ",
"                  ooo@*,o XXX565XXXo<o2%. oo*,<<,,ooo                ",
"                oo&*o*,@o X@8666@8Xo,o1$.   ooo*,,,,*ooooo           ",
"             oooo@***,oo  o*9566*98o*o+..      ooo*,<<<,**oo         ",
"          ooo@@*,,@ooo     #5-66665oo..           oo,,<<,,,*oo       ",
"        ###**oooooo         #5-665-#.               oo*,<<<,,,oo     ",
"       o#-5##o*..            #55-##                   oo*,<<<,,*o    ",
"      o**#-56o,++...          ###OOO                    oo,,<<,,*o   ",
"     o**###6o,++$$%%...oo#####O:oo:O                      o,,<<,,o   ",
"    o*##5-65o*+++$$$%%$*o5566O@o*,o*O#                     o,,<<,*o  ",
"   o**#--5-#o@++++++$$+@o--5-Oo=oo=oO5#                     o,,<<,o  ",
"  o@**#55## oo.........oo###-O=o*o:3O65#                    o,,<<,*o ",
"  o***,##                   #O:o*o37O56#                     o,,<<,o ",
" o@**,*o                    O44o,o77O#56#                    o,,<<,o ",
" o***,@o                    O77o,o73O#-66#                   o*,<<,o ",
" o**,*o                     O3o*,o3=O #-55o                   o,<<,*o",
"o@**,*o                     O3o,+.3O   #-o,o                  o,,<<,o",
"o@**,*o                    O:3o,,o7O    o*$$..                o*,<<,o",
"o***,@o                    O:3o,+.3O     o+%;+.               o*,<<,o",
"o****@o                   O=::o,*o3O      .$%;$..             o*,<<,o",
"o****@o                  O=:=:o*o=:O       .%%;$+.            o*,<<,o",
"o****@o                 O===:=o*o::=O      .+$%%$,o          o*,,<<,o",
"o****@o                  O==OO+o==::O       .+$$<o#####      o,,,<,,o",
"o**@*@o                 .+OO+$$+O:===O       .+,o55665#     o*,,,<,,o",
"o@*@**o                .+$$%$$%%O==OO         o*o-####     o*,,,<,,,o",
"o@*@@*@o              o*$%;$%;;$+OO$+.         o5#####    o***,,,,,*o",
" o@*o@@o              oo@*$+$%%$$;$;$.         #-# ##    ooooo**,,,o ",
" o@*@oo@o              #oo*,,<$+%%+%%+.      oo##           o**,,,,o ",
" o@@*o ooo             #-5oooo<,<<,***o      o@o         ooo*,,,,,*o ",
"  o@@o                 o@-55# ooooooooo       o@ooooooooo**,,,,,,*o  ",
"  o@@@o           oo   .+*,*o  #-5665#         o@********,,,,,,*oo   ",
"   o@@@oo       oo@o   .++$+.  o*,,,*o          oo@*******,,**oo     ",
"    o@@@@ooooooo@oo    .+$%$.  .++$+.             oo@*****oooo       ",
"     oo@@@@@@@@oo      .+%%.   .+%%$.               oooooo           ",
"       oooooooo        .$%$.    .$;%.                                ",
"                      .+$%$.    .+;;.                                ",
"                      .+%;.      .%;$.                               ",
"                      .+%+.      .$%%+..                             ",
"                      .$%.        .+%$$+.                            ",
"                     .+$$.         .$$%%+.                           ",
"                     .$%+.          .$$;%.                           ",
"                     .$;.            .+%;$.                          ",
"                    .+$$.             .$%%.                          ",
"                    .$$.               .$;$.                         ",
"                   .$%.                 .%%.                         ",
"                   .$%.                 .+;$.                        ",
"                  .+$+.                  .%%.                        ",
"                  .$$.                   .+%$.                       ",
"                 .+$%.                   ..%%.                       ",
"                 .+%;+.                 .$%%%+.                      ",
"                 .++$$.                .+$$%%$.                      ",
"                 o@*,*o                o@*,,,*o                      ",
"                  oooo                 ooooooo                       "
};
