/* XPM */
static char *_e3198bb7a1143559b074bf8003dcc227UX9nA4G8LUYJyV3[] = {
/* columns rows colors chars-per-pixel */
"69 63 28 1 ",
"  c None",
". c #020303",
"X c #050301",
"o c #1B0400",
"O c #100E0B",
"+ c #131313",
"@ c #3E0400",
"# c #0D2127",
"$ c #2D2D2D",
"% c #3A3A3A",
"& c #4E0700",
"* c #6C0800",
"= c #564536",
"- c #336576",
"; c #4E4E4E",
": c #7B6859",
"> c #B50E00",
", c #B50F00",
"< c #FF2F1C",
"1 c #0FA356",
"2 c #0CE675",
"3 c #A78E79",
"4 c #001AB1",
"5 c #42B5DC",
"6 c #61C8EE",
"7 c #BAAA9A",
"8 c #A0A0A0",
"9 c #B9B9B9",
/* pixels */
"                             ooo                                     ",
"                            o**@..                                   ",
"                            o,*.1.ooo oo                             ",
"                           o*,.2.*,*ooo*o..ooo                       ",
"                           o,,.1.<@@@,*@*o1.@@o                      ",
"                          o*,*..<@<,@<,@,*o2.*o                      ",
"                          o,,*o<@<<,@@<@@*o1.*o                      ",
"                         o,<*@o,@<,@*@,@@*o..*@o                     ",
"                       oo,<<*.o*@,@*oo*@*@*o@*@o                     ",
"                      o*,<<*.+.o,*oo-5o*oo@o***o                     ",
"                   ooo,<<,,o.1+o,o--555oo-oo@,*&o                    ",
"                ooo,,<<,*oo .%2o<oXXX565XXX o,*@ooo                  ",
"           ooooo*,,,,*ooo   .$1o,oX8@6668@X o@,*o*&oo                ",
"         oo**,<<<,*ooo      ..+o*o89*6659*o  oo,***@oooo             ",
"       oo*,,,<<,,oo           ..oo56666-5#     ooo@,,*@@ooo          ",
"     oo,,,<<<,*oo               .#-566-5#         oooooo**###        ",
"    o*,,<<<,*oo                   ##-55#            ..*o##5-#o       ",
"   o*,,<<,,oo                    OOO###          ...++,o65-#**o      ",
"   o,,<<,,o                      O:oo:O#####oo...%%$$++,o6###**o     ",
"  o*,<<,,o                     #O*o,*o@O6655o*$%%$$$+++*o56-5##*o    ",
"  o,<<,,o                     #5Oo=oo=oO-5--o@+$$++++++@o#-5--#**o   ",
" o*,<<,,o                    #56O3:o*o=O-###oo.........oo ##55#**@o  ",
" o,<<,,o                     #65O73o*o:O#                   ##,***o  ",
" o,<<,,o                    #65#O77o,o44O                    o*,**@o ",
" o,<<,*o                   #66-#O37o,o77O                    o@,***o ",
"o*,<<,o                   o55-# O=3o,*o3O                     o*,**o ",
"o,<<,,o                  o,o-#   O3.+,o3O                     o*,**@o",
"o,<<,*o                ..$$*o    O7o,,o3:O                    o*,**@o",
"o,<<,*o               .+;%+o     O3.+>o3:O                    o@,***o",
"o,<<,*o             ..$;%$.      O3o*>o::=O                   o@****o",
"o,<<,*o            .+$;%%.       O:=o*o:=:=O                  o@****o",
"o,<<,,*o          o,$%%$+.      O=::o*o=:===O                 o@****o",
"o,,<,,,o      #####o<$$+.       O::==o+OO==O                  o@****o",
"o,,<,,,*o     #56655o,+.       O===:O+$$+OO+.                 o@*@**o",
"o,,,<,,,*o     ####-o*o         OO==O%%$$%$$+.                o**@*@o",
"o*,,,,,***o    #####5o         .+$OO+$;;%$;%$*o              o@*@@*@o",
" o,,,**ooooo    ## #-#         .$;$;$$%%$+$*@oo              o@@o*@o ",
" o,,,,**o           ##oo      .+%%+%%+$<,,*oo#              o@oo@*@o ",
" o*,,,,,*ooo         o@o      o***,<<,<oooo5-#             ooo o*@@o ",
"  o*,,,,,,**ooooooooo@o       ooooooooo #55-@o                 o@@o  ",
"   oo*,,,,,,********@o         #5665-#  o*,*+.   oo           o@@@o  ",
"     oo**,,*******@oo          o*,,,*o  .+$++.   o@oo       oo@@@o   ",
"       oooo*****@oo             .+$++.  .$%$+.    oo@ooooooo@@@@o    ",
"           oooooo               .$%%+.   .%%+.      oo@@@@@@@@oo     ",
"                                .%;$.    .$%$.        oooooooo       ",
"                                .;;+.    .$%$+.                      ",
"                               .$;%.      .;%+.                      ",
"                             ..+%%$.      .+%+.                      ",
"                            .+$$%+.        .%$.                      ",
"                           .+%%$$.         .$$+.                     ",
"                           .%;$$.          .+%$.                     ",
"                          .$;%+.            .;$.                     ",
"                          .%%$.             .$$+.                    ",
"                         .$;$.               .$$.                    ",
"                         .%%.                 .%$.                   ",
"                        .$;+.                 .%$.                   ",
"                        .%%.                  .+$+.                  ",
"                       .$%+.                   .$$.                  ",
"                       .%%..                   .%$+.                 ",
"                      .+%%%$.                 .+;%+.                 ",
"                      .$%%$$+.                .$$++.                 ",
"                      o*,,,*@o                o*,*@o                 ",
"                       ooooooo                 oooo                  "
};
