/* XPM */
static char *_5f120ff51384ae084c2a04532bacc213FMoboabc5iT1K6g[] = {
/* columns rows colors chars-per-pixel */
"48 48 189 2 ",
"   c None",
".  c #147EFF",
"X  c #1D7FFF",
"o  c #1683FF",
"O  c #1985FF",
"+  c #1789FF",
"@  c #1A8CFF",
"#  c #1B93FF",
"$  c #1C9BFF",
"%  c #2282FF",
"&  c #2F87FF",
"*  c #248DFF",
"=  c #3485FF",
"-  c #3A8AFF",
";  c #2492FF",
":  c #2B94FF",
">  c #239DFF",
",  c #2B9DFF",
"<  c #3E93FF",
"1  c #339DFF",
"2  c #389AFE",
"3  c #1EA3FF",
"4  c #1FAAFF",
"5  c #22A3FF",
"6  c #2BA6FF",
"7  c #22ABFF",
"8  c #2AABFF",
"9  c #32A4FF",
"0  c #3AA2FF",
"q  c #34ACFF",
"w  c #3BACFF",
"e  c #25B3FF",
"r  c #2BB4FF",
"t  c #27BBFF",
"y  c #2ABBFF",
"u  c #33B3FF",
"i  c #3BB2FF",
"p  c #34BCFF",
"a  c #3BBBFF",
"s  c #449BFF",
"d  c #41A4FF",
"f  c #4FA5FE",
"g  c #44AAFF",
"h  c #4BABFF",
"j  c #54ACFF",
"k  c #5BA9FF",
"l  c #45B5FF",
"z  c #4AB7FF",
"x  c #42BDFF",
"c  c #49BBFF",
"v  c #54B5FE",
"b  c #5CB2FF",
"n  c #55BDFF",
"m  c #58BDFF",
"M  c #60ADFE",
"N  c #62B5FE",
"B  c #6DB3FF",
"V  c #61BAFF",
"C  c #6ABCFF",
"Z  c #73B7FF",
"A  c #2BC3FF",
"S  c #2CCAFF",
"D  c #34C3FF",
"F  c #3AC6FF",
"G  c #34CAFF",
"H  c #3CCCFF",
"J  c #3CD5FF",
"K  c #34D8FF",
"L  c #3DD8FF",
"P  c #44C3FF",
"I  c #4CC6FF",
"U  c #44CBFF",
"Y  c #4ACEFF",
"T  c #54C2FF",
"R  c #5AC2FF",
"E  c #55CCFF",
"W  c #5DCCFF",
"Q  c #41D1FF",
"!  c #4BD6FF",
"~  c #4ADBFF",
"^  c #51D5FF",
"/  c #5CD2FF",
"(  c #55DFFF",
")  c #5CDAFF",
"_  c #62C3FF",
"`  c #69C1FF",
"'  c #64CEFF",
"]  c #69CDFF",
"[  c #72C1FF",
"{  c #7AC3FF",
"}  c #64D6FF",
"|  c #6AD3FF",
" . c #64DCFF",
".. c #6CDDFF",
"X. c #74D4FF",
"o. c #7CD7FF",
"O. c #73DFFF",
"+. c #7FDAFF",
"@. c #44E4FF",
"#. c #4DE1FF",
"$. c #4BEAFF",
"%. c #53E7FF",
"&. c #52EBFF",
"*. c #5AE8FF",
"=. c #50F0FF",
"-. c #5EF2FF",
";. c #50F9FF",
":. c #6AE6FF",
">. c #65EFFF",
",. c #6BEAFF",
"<. c #76E1FF",
"1. c #78E4FF",
"2. c #74EBFF",
"3. c #7DECFF",
"4. c #63F7FF",
"5. c #69F7FF",
"6. c #6DFEFF",
"7. c #77F6FF",
"8. c #7BF5FF",
"9. c #74FCFF",
"0. c #7BFDFF",
"q. c #84C6FE",
"w. c #92C7FF",
"e. c #93CCFF",
"r. c #89D7FF",
"t. c #83DBFF",
"y. c #9DD1FD",
"u. c #97DBFF",
"i. c #9BDEFF",
"p. c #A1D1FF",
"a. c #A5DBFF",
"s. c #B2D9FE",
"d. c #86E3FF",
"f. c #8BE2FF",
"g. c #84EEFF",
"h. c #8AECFF",
"j. c #90E2FF",
"k. c #9CEBFF",
"l. c #81F4FF",
"z. c #8FF4FF",
"x. c #82FDFF",
"c. c #8CFCFF",
"v. c #94F5FF",
"b. c #9BF4FF",
"n. c #94FCFF",
"m. c #9AFEFF",
"M. c #B2E2FE",
"N. c #BAE4FF",
"B. c #B3ECFF",
"V. c #BEECFF",
"C. c #A3F5FF",
"Z. c #A9F5FF",
"A. c #A2FDFF",
"S. c #A9FBFF",
"D. c #B4F4FF",
"F. c #BAF5FF",
"G. c #B4FDFF",
"H. c #BCFDFF",
"J. c #C1E6FF",
"K. c #C8E6FF",
"L. c #D3EBFF",
"P. c #DDEFFF",
"I. c #C3F3FF",
"U. c #CCF1FF",
"Y. c #C4FEFF",
"T. c #CBFFFF",
"R. c #D2F7FF",
"E. c #DDF5FF",
"W. c #D7FFFF",
"Q. c #D3FCFF",
"!. c #DDFFFF",
"~. c #E0F7FF",
"^. c #E6F2FF",
"/. c #E8F3FF",
"(. c #E7FFFF",
"). c #E4FEFF",
"_. c #ECFEFF",
"`. c #EBFFFF",
"'. c #F3FFFF",
"]. c #F2FCFF",
"[. c #F5FFFF",
"{. c #F7FFFF",
"}. c #F4FFFF",
"|. c #F9FFFF",
" X c #FAFFFF",
".X c white",
"XX c #FEFFFF",
"oX c #FCFFFF",
"OX c #FEFFFF",
/* pixels */
"                                                                                                ",
"                                                                                                ",
"                                                                                                ",
"                                                                                                ",
"                                                                                                ",
"                                        . . . . . . . . . . .                                   ",
"                            Z :   . . . . . o . . . . . . . o o o +                             ",
"                          9 B @ . . . . o o o . . X O 2 o O * o + # # @                         ",
"                          # @ o . . . . o o O o . . 2 a.z h g O # # $ # o     N q.              ",
"                        + # # + * k o . o @ @ # O . * V f.K.q.0 # $ $ # + o   j {               ",
"                n     @ + # # # @ * . o O O # 6 @ @ 1 ' E.L.r.> # # $ @ o o o                   ",
"                M.g @ + + @ # $ $ # @ O 9 ; x P # ; 6 r.^.U.O.u X.4 $ # o o o .                 ",
"                1   ; j + + # 3 $ 5 8 i n ] ..c > 8 z N.^.D.<... .p a @ o . . o o               ",
"                  . ; e.+ + @ 5 8 o.) | V.~.V.' ! r x k.P.E.'.~.) U } O . o o o o               ",
"                  . o o o o @ 3 t ^ ~ O.E.].{.W.A.b.1...R.).H.n.0.,.c @ + o o o o .             ",
"                . . . . o o # 5 e D &.m._. X'. X{.{.D.X.v.v.9.x.S.Y.o.9 5 # @ O . o             ",
"                . . . . O o @ a p $.c.Q.{. XoXoXoXoX_.E.x.5.0.0.m.D.o.9 5 # + o o . .           ",
"              . o o . O M j ` F h.8.H.!. XoXoXoXoXoXoX_.Q.T.6.9.7.g.f.F 5 # o o . . .           ",
"              o . o o o Z C 0 l N.(.oXoXoXoXoXoXoXoXoXoXoX`.m.n.m.z.Z.P # + o o . . . .         ",
"              o . o O @ # , w _ N._. XoXoXoXoXoXoXoXoXoXoX_.`.).!.G./ # o o o o o . o o         ",
"              . o o + + + # 5 P d.a.F.(.{.oXoXoXoXoXoXoXoXoXoXoX{.).2.u 3 @ # $ # + + +         ",
"        y.  . . . o + o o @ 5 H a F C.Z. XoXoXoXoXoXoXoXoX XoXoXoX'.z.*.A e 4 4 4 3 # # #       ",
"            . . . o o . o @ 5 e A L H.'.oXoXoXoXoXoXoXoXoXoXoXoXoXoXA.9.L A t e 4 4 $ $ #       ",
"            . . O b f . o o $ 8 G 4.!.oXoXoXoXoXoXoXoXoXoXoXoXoXoXoXoXG.-.H D e 4 4 3 3 ,       ",
"            . . * w.[ O . o O # 8 ~ T.`.oXoXoXoXoXoXoXoXoXoXoXoXoXoX`.c.~ D e 7 4 4 4 $ #       ",
"            . o @ : c , * O @ # > a :.x._.oXoXoXoXoXoXoXoXoXoXoX'.`.`.c.~ t 5 5 3 $ $ @         ",
"            . + # n B.| q # > $ > i P 8.`.oXoXoXoXoXoXoXoXoXoXT.G.(. XF.F > , 2 ; # + o         ",
"              @ $ E C.3. .<.W r u F ! c.'.oXoXoXoXoXoXoXoXoXoX). XoX_.C.I ; 9 a - O o o         ",
"              @ > 8 ~ 8.).Z.&.A G $.6.H.oXoXoXoXoXoXoXoXoXoXoXY.T.H.v.;.a 1 0 p - . . .         ",
"              + # 3 H F._.Y.J A S @.x.G.oXoXoXoXoXoXoXoXoXoX`.8.%.9.b.U 0 # * = * . .           ",
"              o + # 8 f.l.U D t A @.n.`.oXoXoXoXoXoXoXoX'. X(.z.8 I R 6 $ # @ o O . .           ",
"                o o @ @ 6 @ 3 7 t D h. XoXoXoX X(.Q.(.oX'. X Xn.a # @ @ o o @ ; N d o           ",
"                o . . o O + $ 3 F >.F. XoXoX(.!.S.0.9.!.{.oX).c.#.8 > @ . . o ; w.j             ",
"                  . . . + + # > ' P b.`.oX_.m.9.0.0.0.C.R.D.8.! Q ^ ' , o . . O o :             ",
"                    . o + @ + 9 t.Y ) m.(.T.9.9.$.9.$.,.<. .U F H Q E 6 o o . . .               ",
"                    . o o o @ @ m k.g.A.{.Y.G.H.m.n.A.g.W a r e D G t 5 # o . .                 ",
"                      o # @ , ; R R.T.c.G.A.D.R.A.H.T.I.` w 8 e t p y 4 $ + o                   ",
"                        * [ u.E } G.Z.@.~ H | m 3.c.H.M._ 9 , $ e e e 7 $ +                     ",
"                        9 i.s.z P ( Y ! 7 7 q @ 6 (  .` z b ; @ $ 4 7 4 3 #                     ",
"                        0 r.W i p e 5 e 5 3 # o > 8 9 g t.s.0 o + $ 3 3 $                       ",
"                        v J.{ # 5 3 $ $ # + O o # : < < h k * o o o # $                         ",
"                          V       $ $ # @ + @ : j < l K < X o .                                 ",
"                                            @ C p.h s g - .                                     ",
"                                                N 2 = =                                         ",
"                                        {                                                       ",
"                                                                                                ",
"                                                                                                ",
"                                                                                                "
};
