/* XPM */
static char *c714fc16cb634a4fa6db1224fa700202PaM8FLx9e1qRJgcd[] = {
/* columns rows colors chars-per-pixel */
"48 48 185 2 ",
"   c None",
".  c #147EFF",
"X  c #1A7FFF",
"o  c #1682FF",
"O  c #1A85FF",
"+  c #1789FF",
"@  c #1A8BFF",
"#  c #1B93FF",
"$  c #1C9BFF",
"%  c #2684FF",
"&  c #2A83FF",
"*  c #218DFF",
"=  c #3385FF",
"-  c #3A85FF",
";  c #2494FF",
":  c #2A96FF",
">  c #229DFF",
",  c #2C9BFF",
"<  c #3197FE",
"1  c #319EFF",
"2  c #3E9CFF",
"3  c #1EA3FF",
"4  c #1FA8FF",
"5  c #22A3FF",
"6  c #2CA4FF",
"7  c #23ABFF",
"8  c #2BABFF",
"9  c #32A4FF",
"0  c #3BA5FF",
"q  c #33AAFF",
"w  c #3CADFF",
"e  c #26B1FF",
"r  c #2BB4FF",
"t  c #2EBAFF",
"y  c #34B3FF",
"u  c #3CB3FF",
"i  c #32BCFF",
"p  c #3BBDFF",
"a  c #448FFF",
"s  c #4D8FFF",
"d  c #4796FF",
"f  c #4C93FF",
"g  c #409EFF",
"h  c #499DFF",
"j  c #43A4FF",
"k  c #4CA5FF",
"l  c #46ABFF",
"z  c #54A1FF",
"x  c #55ABFF",
"c  c #5CACFF",
"v  c #44B4FF",
"b  c #4FB6FF",
"n  c #43BCFF",
"m  c #4ABBFF",
"M  c #53B3FF",
"N  c #5DB3FE",
"B  c #55BDFF",
"V  c #5DBEFF",
"C  c #61A7FE",
"Z  c #60ADFF",
"A  c #61B1FF",
"S  c #61BBFF",
"D  c #6CBCFF",
"F  c #71BCFF",
"G  c #78BDFE",
"H  c #35C5FF",
"J  c #3DC5FF",
"K  c #32C8FF",
"L  c #3BC9FF",
"P  c #3CD1FF",
"I  c #37DEFF",
"U  c #44C3FF",
"Y  c #4DC3FF",
"T  c #44CAFF",
"R  c #4CCCFF",
"E  c #53C4FF",
"W  c #5EC1FF",
"Q  c #51CEFF",
"!  c #42D4FF",
"~  c #4CD4FF",
"^  c #47DAFF",
"/  c #4BDBFF",
"(  c #52D4FF",
")  c #5CD4FF",
"_  c #52DDFF",
"`  c #5FD9FF",
"'  c #62C6FF",
"]  c #6CC1FD",
"[  c #65CDFF",
"{  c #6CCBFF",
"}  c #75C5FF",
"|  c #7CC4FF",
" . c #70CFFF",
".. c #7CCBFF",
"X. c #66D4FF",
"o. c #6BD1FF",
"O. c #64DCFF",
"+. c #7FD2FF",
"@. c #47E3FF",
"#. c #4BE2FF",
"$. c #4FECFF",
"%. c #57E3FF",
"&. c #5AE5FF",
"*. c #56ECFF",
"=. c #5CEBFF",
"-. c #56F0FF",
";. c #65E5FF",
":. c #6CE3FF",
">. c #65ECFF",
",. c #6CECFF",
"<. c #72E4FF",
"1. c #7FE1FF",
"2. c #73EEFF",
"3. c #7BEBFF",
"4. c #67F5FF",
"5. c #6DF4FF",
"6. c #73F4FF",
"7. c #7DF3FF",
"8. c #83C6FE",
"9. c #84CAFF",
"0. c #8ECCFE",
"q. c #96CCFE",
"w. c #8DD4FF",
"e. c #84DAFF",
"r. c #9CD4FF",
"t. c #92DBFF",
"y. c #9DDBFF",
"u. c #A7DCFE",
"i. c #ADDAFF",
"p. c #86E2FF",
"a. c #8BE4FF",
"s. c #83EAFF",
"d. c #8CEEFF",
"f. c #93E1FF",
"g. c #9DE4FF",
"h. c #90E9FF",
"j. c #9FEDFF",
"k. c #84F5FF",
"l. c #8EF3FF",
"z. c #82FAFF",
"x. c #8BFCFF",
"c. c #94F2FF",
"v. c #93FCFF",
"b. c #9DFBFF",
"n. c #A2E3FF",
"m. c #A9E3FF",
"M. c #ABEDFF",
"N. c #B1E3FF",
"B. c #B7ECFF",
"V. c #BBEBFF",
"C. c #ABF4FF",
"Z. c #A4FEFF",
"A. c #ACFFFF",
"S. c #B3F4FF",
"D. c #BAF3FF",
"F. c #B3FDFF",
"G. c #BDFEFF",
"H. c #C1EEFF",
"J. c #C9ECFF",
"K. c #D7EBFF",
"L. c #D8EEFF",
"P. c #C1F5FF",
"I. c #C3FBFF",
"U. c #C3FDFF",
"Y. c #CAFEFF",
"T. c #CDFDFF",
"R. c #D3F4FF",
"E. c #DFF3FF",
"W. c #DAF3FF",
"Q. c #D4FDFF",
"!. c #DBFEFF",
"~. c #E2F5FF",
"^. c #ECF7FF",
"/. c #E2FFFF",
"(. c #E5FEFF",
"). c #EAFFFF",
"_. c #EAFEFF",
"`. c #F2FEFF",
"'. c #F7FFFF",
"]. c #F3FFFF",
"[. c #F9FFFF",
"{. c #FAFFFF",
"}. c #FDFFFF",
"|. c white",
" X c #FEFFFF",
/* pixels */
"                                                                                                ",
"                                                            ] r.                                ",
"                                        + @ + + + + o     * ' }                                 ",
"                                    . O @ + + @ @ + . . o D u.:                                 ",
"                                . . o * , + + @ # @ o . . M x * . .                             ",
"                            o o o o O 1 l ; # # # @ o O g N , o o . .                           ",
"                        . o . o * 9 m [ w.E u 6 $ # + o D i.0 o o . % . .                       ",
"                      . . . . o o 9 a.~.W.t.y 8 $ # O o : w M : O . . . . .                     ",
"                    . . . o . O , B H.^.~.f.:.) 5 # + o o 1 r.B + O . . . . .                   ",
"                  . . . . X o + ;  .K.L.g.~ M.F.U $ + o * , 1 q ; @ . O * < . .                 ",
"                  . . . . o + @ 6 ' m.n.<.p _ ;.H 6 w q ..v q 9 u + X O 8.0.: .                 ",
"                . . . . . o @ ; , u g.N.s.T =./ &.;.B.w.[ w.0.e.9 O o O x 8.: . .               ",
"              . . . . . . . o ; u Y P.R.g.~ l.Y.F.Y.D.1.<.P.R.w.9 O . . * O X . o +             ",
"              ; o o o O O * o ; Q 3.s.I.B.C.).|.|.{.!.C.l.Q.G.s.Y * o . O C z o + # +           ",
"            ; c + + o * Z x 9 D o.<.Y.!.`.'.|.|.|.|.|.{.`.Z.x.( ; * O o , 1 : @ $ # #           ",
"            + + # # # 6 F A 1 { l.k./.).{.|.|.|.|.|.|.|.{.Z.Z.E O o O ; ..a.p m # # #           ",
"            o + # $ $ $ 9 , ; u M.Q.'.|.|.|.|.|.|.|.|.|.|.).Q.m @ @ # n T.(.M.n > # # +         ",
"          o o + # $ $ 3 $ # 6 p X.,.`.|.|.|.|.|.|.|.|.|.|.|._.a.~ 5 > i :.!.F.` y > + o         ",
"          . . + # $ 3 4 3 5 5 > n C.|.|.|.|.|.|.|.|.|.|.|.|.{.Z.4.#.! K ;.7.7.~ p @ + .         ",
"          . . . + # $ 4 7 7 7 i ~ I.|.|.|.|.|.|.|.|.|.|.|.|.|.).A.5.! T ^ ,.c.p., O o .         ",
"          . . . o + # 3 7 t K ^ b.b.'.|.|.|.|.|.|.|.|.|.|.|.|.|.Q.*.L L / c.R.y.0 O o X         ",
"          . . . o o o $ 7 K *.=.F.F.|.|.|.|.|.|.|.|.|.|.|.|.|.|.).z.L r { t.t.{ 0 ; o o         ",
"          . . o o + + $ 7 ;.F.x.F.'.|.|.|.|.|.|.|.|.|.|.|.|.{.|.(.v._ 8 B { y U $ + O o         ",
"          o . o + + + $ r 3.Q.I.Q.'.|.|.|.|.|.|.|.|.|.|.|.|.!./.{.Q.;.5 ; > $ 5 # O o o         ",
"          o o o + + + @ $ y J &.G.{.|.|.|.|.|.|.|.|.|.|.{./.z.k.,.F.C.6 + # @ @ + O o .         ",
"          o . o + o o o + # 6 &.G.(.|.|.|.|.|.|.|.|.|.|.|.Y.5.T 8 U X.# + O + 0 : o . .         ",
"      G 0.+ o . . . . o + # 6 ~ >.z.`.|.|.|.|.|.|.|.|.|.{.Y.v.( J U e 3 > @ j i.Z o o = -       ",
"        x   o . . . + # $ 5 p ^ ! =.F.|.|.|.|.|.|.|.|.|.!.x.k.F.3.2.i r a.B n ..k O % 0 l -     ",
"            M * + + # 3 7 r t H i #.x._.|.|.|.|.|.|.|.|.|.A.A.'.`.b.&.! h.` H 6 + o & 0 u -     ",
"          S J.M # $ 3 7 7 7 7 7 t P 6.(.'.F.T.{.|.|.|.|.|.{.'._./.l.~ t t y 8 3 # + O & =       ",
"            t.| $ 3 3 3 3 3 3 3 3 r -.b.Z.~ 2.!.{.|.|.|.|.|.!.I.Z.7.t e 7 7 4 3 $ @             ",
"              # $ $ 3 $ 3 $ # + # r @.$.#.r :.Z.(.I.b.T.`.`.`.I.Q.,.i 3 5 3 3 $ $ #             ",
"                # # # $ $ $ + + 5 P z.7.R W T.6.O.%.~ e.b.z.k.x.a.u > $ $ 3 3 3 $ #             ",
"                # # @ + # + O 6 X.;.T.).V.O.Q J U U 8 Y ` H H d.V > + + # $ 3 $ $               ",
"                  + + + + o O w C.(.'.`.B.u 7 y p i 7 p q q p e.B O O o + + @ #                 ",
"                    o + o . o 8 O.Q.(.W.e.T 5 r i t 7 6 ; 9.q.q @ o o . o o o                   ",
"                        . . + 6 u ) } [ w y r r t r 3 # ; N S @ + o . o .                       ",
"                          o + O + * l 0 O + 3 e r r 3 # o * O O o o o .                         ",
"                            O o . k ..< . O $ e r e 3 # + o . . . o .                           ",
"                            0   . j D ; o l [ y 7 e $ # O . . . .                               ",
"                          q.r.1     o o : 9.V.H 7 5 E ' , .                                     ",
"                          ] ]             0 W 8 3 8 t.J.B                                       ",
"                                                  6 { ..0                                       ",
"                                                                                                ",
"                                                                                                ",
"                                                      d d                                       ",
"                                                    f I v                                       ",
"                                                    s v h                                       "
};
