/* XPM */
static char *f4b0359c45e0419d96aea5695770937aUecci4ZhGfWWQnQr[] = {
/* columns rows colors chars-per-pixel */
"48 48 187 2 ",
"   c None",
".  c #147EFF",
"X  c #1682FF",
"o  c #1A85FF",
"O  c #1789FF",
"+  c #1A8BFF",
"@  c #1B93FF",
"#  c #1D9CFF",
"$  c #218DFF",
"%  c #388EFF",
"&  c #2393FF",
"*  c #2A95FF",
"=  c #249BFF",
"-  c #2B9CFF",
";  c #3295FF",
":  c #319AFF",
">  c #3A9CFF",
",  c #1EA4FF",
"<  c #1FA9FF",
"1  c #23A4FF",
"2  c #2CA3FF",
"3  c #23ABFF",
"4  c #2BACFF",
"5  c #34A4FF",
"6  c #3CA5FE",
"7  c #34ACFF",
"8  c #3AACFF",
"9  c #25B1FF",
"0  c #2BB3FF",
"q  c #2DBAFF",
"w  c #34B4FF",
"e  c #3CB7FF",
"r  c #33BBFF",
"t  c #3BBBFF",
"y  c #43ABFF",
"u  c #4AADFF",
"i  c #44B4FF",
"p  c #48B5FF",
"a  c #42BCFF",
"s  c #4BBAFF",
"d  c #51B7FE",
"f  c #58B4FF",
"g  c #54BDFF",
"h  c #5CBCFF",
"j  c #66B7FF",
"k  c #62BDFF",
"l  c #6BBCFF",
"z  c #77BEFE",
"x  c #2EC2FF",
"c  c #2EC8FF",
"v  c #35C2FF",
"b  c #3BC4FF",
"n  c #33CBFF",
"m  c #3DCBFF",
"M  c #32D2FF",
"N  c #3CD2FF",
"B  c #3CD9FF",
"V  c #42C3FF",
"C  c #4FC4FF",
"Z  c #44CAFF",
"A  c #4DCCFF",
"S  c #53C6FF",
"D  c #59C0FE",
"F  c #53C9FF",
"G  c #5CCAFF",
"H  c #46D5FF",
"J  c #4BD5FF",
"K  c #4BDDFF",
"L  c #53D2FF",
"P  c #5CD4FF",
"I  c #5ADDFF",
"U  c #65C5FF",
"Y  c #6DC6FF",
"T  c #63CDFF",
"R  c #6FC8FF",
"E  c #75C3FF",
"W  c #7CC6FF",
"Q  c #70C8FF",
"!  c #79C8FF",
"~  c #65D1FF",
"^  c #6BD1FF",
"/  c #6CDEFF",
"(  c #75D7FF",
")  c #72DBFF",
"_  c #7BDAFF",
"`  c #4EEEFF",
"'  c #52E3FF",
"]  c #5CE4FF",
"[  c #5CEDFF",
"{  c #56F3FF",
"}  c #5FF4FF",
"|  c #60E3FF",
" . c #6CE2FF",
".. c #63EBFF",
"X. c #6DEDFF",
"o. c #76E4FF",
"O. c #7CE2FF",
"+. c #73EEFF",
"@. c #7BEAFF",
"#. c #63F3FF",
"$. c #6CF3FF",
"%. c #72F5FF",
"&. c #7AF4FF",
"*. c #73FAFF",
"=. c #7EFDFF",
"-. c #83C3FF",
";. c #88C6FE",
":. c #87CCFF",
">. c #8ACCFF",
",. c #93CDFF",
"<. c #83D4FF",
"1. c #8DD2FF",
"2. c #83DFFF",
"3. c #92D4FE",
"4. c #9CD0FE",
"5. c #9BDDFF",
"6. c #A1D5FF",
"7. c #A8D7FF",
"8. c #A2DCFF",
"9. c #AADDFF",
"0. c #B4DCFF",
"q. c #BDDCFE",
"w. c #82E5FF",
"e. c #8EE5FF",
"r. c #85ECFF",
"t. c #8DECFF",
"y. c #95E7FF",
"u. c #9DE5FF",
"i. c #93EBFF",
"p. c #98ECFF",
"a. c #84F1FF",
"s. c #8CF5FF",
"d. c #85FFFF",
"f. c #8BFDFF",
"g. c #95F4FF",
"h. c #9DF7FF",
"j. c #95FBFF",
"k. c #9CFEFF",
"l. c #A4E6FF",
"z. c #AAE4FF",
"x. c #A4EDFF",
"c. c #ABE8FF",
"v. c #B3E6FF",
"b. c #BDE7FF",
"n. c #B0EAFF",
"m. c #A2F3FF",
"M. c #ADF5FF",
"N. c #A4FDFF",
"B. c #ABFDFF",
"V. c #B3F4FF",
"C. c #B9F3FF",
"Z. c #B2FEFF",
"A. c #BBFEFF",
"S. c #CFEEFF",
"D. c #D6EDFF",
"F. c #C3F3FF",
"G. c #CCF6FF",
"H. c #CDF2FF",
"J. c #C2FAFF",
"K. c #C3FBFF",
"L. c #CBFAFF",
"P. c #CAFFFF",
"I. c #CEFCFF",
"U. c #CBFFFF",
"Y. c #D3F4FF",
"T. c #D7F4FF",
"R. c #D2FBFF",
"E. c #D2FFFF",
"W. c #D3FEFF",
"Q. c #D9FAFF",
"!. c #DDFBFF",
"~. c #DFFFFF",
"^. c #DDFEFF",
"/. c #E1F6FF",
"(. c #E1FFFF",
"). c #E3FEFF",
"_. c #E4FFFF",
"`. c #E2FEFF",
"'. c #E9FFFF",
"]. c #EBFFFF",
"[. c #F1FFFF",
"{. c #F4FFFF",
"}. c #F9FFFF",
"|. c #FEFFFF",
" X c white",
".X c #FCFFFF",
"XX c #FEFFFF",
/* pixels */
"                                                                                                ",
"                                                                                                ",
"                                3.1.5                                                           ",
"                              5 7.7.8 @ + O + X X                                               ",
"                            l ! 8 y + O u - + O . . . . . o                                     ",
"                            -.;.$ o o + :.y @ O X . . . . o .                                   ",
"                        X o $ * X X . + = @ @ @ X X . . . . o . .                               ",
"                      . X X ; * o . o + i 2 = 1 O o ; o . X + * $ $ .                           ",
"                    . . o + -.;.* o $ 7 5._ | 4 @ * E $ % + 6 ! z $ . .                         ",
"                  . . X o 2 y u 5 $ 2 ^ Q.].@.) s > & $ X O 5 6.>.: o . .                       ",
"                . . . X X 8 u p y + & G L.(.k.(.V.Y f & + + 2 6 u o o . . .                     ",
"              . . . . X O w 1.8.3.G r w ] j.s.(.R.D.0.p 7 2 + X o . . . . . .                   ",
"            . . . . . $ 5 ( c.D.T.z.2 2 I j.R.I.n.u.z.e.n.s @ & o o . . . . X                   ",
"            . . . . o + 7 T e.l.m.h = e t.[..X}.(.e./ F.!.P a U > $ . . . . X X                 ",
"          X X X . o $ y Y 8.M. .V a - S s.{..X.X].Q.K.(.I.o.P 0.:.* . . . . X @ 5 <.            ",
"        O X O O X X o * -.D.Y.J 0 J z.Y.J..X.X.X.X.XP.Z.f.Z p :.h * o . . . O @ = d             ",
"        O O O @ @ + O & Q v.C.@.[ g.I.G.)..X.X.X.X.X(.B.' t & i 7 X O X X + @ @ 1 R 8.          ",
"        X O @ # # # = 7 a / p.i.d.d.&.O.{..X.X.X.X.X.XK.J F a U 2 2 2 @ @ @ @ # @ j 3.p         ",
"        X O @ # , 3 r e S x.F._._.(.N.r.[..X.X.X.X.X.XL.P T C.V.i.x.] 1 1 1 # @ + & &           ",
"      . . X @ # , 1 4 v L V.[..X.X.X}.]..X.X.X.X.X.X.X).r.h.(.(.N.k.&.J m t # O O X             ",
"      . . . O @ # < < q v j.{..X.X.X.X.X.X.X.X.X.X.X.X(.+.M.}._.B.N.A.B. .7 + X X X 6 4.        ",
"      . . . X O @ , 9 x ' N.!..X.X.X.X.X.X.X.X.X.X.X.X.Xj.Z.].}.N.A.^.K.( e + X . . 6 ,.k       ",
"      . . . . X X # , c { =.(..X.X.X.X.X.X.X.X.X.X.X.X.XR.N.B.k.d.g.p.1.i 2 & O X X +           ",
"      . . . X O + @ 3 N B #.I..X.X.X.X.X.X.X.X.X.X.X.X.X{.N.[.d.H 0 e w.( 7 + O X X             ",
"      X . X X @ h a 0 ' { d.{..X.X.X.X.X.X.X.X.X.X.X.X.X.X].A.N.r.4 2 p.J.S = o X X             ",
"      X . X X - ! A G A Z s.}..X.X.X.X.X.X.X.X.X.X.X.X.X.X.XB.W.p.2 @ s G 8 O o X X             ",
"      X . X X O & g v.5.G t.[..X.X.X.X.X.X.X.X.X.X.X.X.X.X!.N.+.] 1 O & O $ o . . .             ",
"        X X o & y E b.n.+.$.j.{.}.{.]..X.X.X.X.X.X.X.X.X}.f...b H 3 = O > l . . . .             ",
"        . . . . O e _ o.H ' *.K..X].I..X.X.X.X].(.}.{.W.{.Z.] r 0 9 3 # @ & X . .               ",
"        . . X O @ t b m b v K M..X_.R..X.X.XI.k.N.Z.j.$.j.*...J r 3 3 , , @ o o .               ",
"          X + # 1 q 3 9 q 0 r +.k.N.R..X.X.XA.N.!.*.H m ` N r.h.m 0 9 < < , & @ o               ",
"          O # , < 1 , , 3 , 0 H #.d.P..X.X[.(.].V.H n n M c  .2.v 9 0 3 , , = = +               ",
"          @ # # , # , # @ # w A g.*.A.].(.A.]..XA.&.$.' n x 3 1 w G S 0 3 , # @                 ",
"            @ @ @ # , @ O O t g.^.Z.@.) L g.].].(.(.I.R.@.r # @ 7 _ T 3 , , # @                 ",
"            @ @ @ O @ O o & V a.M.r.a w 4 r._.].[.].{.}.Z.] = & & 8 5 = , # #                   ",
"              + O O O O o + 1 0 G 2 - 2 1 t ..f.g.K.!.!.s.g.P = & @ O @ + @                     ",
"                  X X . X O @ # 7 X . + # 3 m K t V w.) M.(.H.2.5 X $ o X                       ",
"                    X X X X O X o . . X # 9 t v 3 3 7 p c./.!.~ $ & :.:                         ",
"                      . X X X X . . . X # 3 q 0 1 # - 8 h 8.( G 5 + u                           ",
"                        X o $ + $ o . X # 3 9 9 , # + o $ g & + & O                             ",
"                          & h U 9.6 . X @ , 3 3 # @ X . o 5 X                                   ",
"                          h q.u.8.5 o X @ # , , # O X . . o                                     ",
"                          d 3.k a       O # # # @ X                                             ",
"                                                                                                ",
"                                                                                                ",
"                                                                                                ",
"                                                                                                ",
"                                                                                                "
};
