/* XPM */
static char *e5b07f6ffe5342ce8c65f85dea354aa6CMN0WVB2N4a7UBnJ[] = {
/* columns rows colors chars-per-pixel */
"48 48 188 2 ",
"   c None",
".  c #147EFF",
"X  c #1683FF",
"o  c #1985FF",
"O  c #1789FF",
"+  c #1A8CFF",
"@  c #1A93FF",
"#  c #1C9CFF",
"$  c #238DFF",
"%  c #2493FF",
"&  c #2A95FF",
"*  c #239CFF",
"=  c #2B9BFF",
"-  c #3D96FF",
";  c #329DFF",
":  c #3C9EFF",
">  c #1EA4FF",
",  c #1EACFF",
"<  c #1FB0FF",
"1  c #23A4FF",
"2  c #2CA3FF",
"3  c #24ABFF",
"4  c #2AABFF",
"5  c #33A3FF",
"6  c #3AA4FF",
"7  c #33ABFF",
"8  c #3AAAFF",
"9  c #26B2FF",
"0  c #2BB3FF",
"q  c #2BBBFF",
"w  c #32B4FF",
"e  c #3CB3FF",
"r  c #32BCFF",
"t  c #3DBEFF",
"y  c #43A5FF",
"u  c #4EA4FF",
"i  c #43ACFF",
"p  c #4BADFF",
"a  c #54ADFE",
"s  c #5BACFF",
"d  c #43B6FF",
"f  c #4AB2FF",
"g  c #41BBFF",
"h  c #4BBDFF",
"j  c #55B2FF",
"k  c #59B3FF",
"l  c #55BBFF",
"z  c #5ABCFF",
"x  c #60ABFF",
"c  c #62B3FE",
"v  c #69B5FF",
"b  c #60B9FF",
"n  c #6BBAFF",
"m  c #75BEFF",
"M  c #79B9FE",
"N  c #34C2FF",
"B  c #3AC4FF",
"V  c #3BCCFF",
"C  c #3DD5FF",
"Z  c #43C3FF",
"A  c #4DC5FF",
"S  c #44CCFF",
"D  c #4CCCFF",
"F  c #53C4FF",
"G  c #5CC6FF",
"H  c #55CAFF",
"J  c #5DCEFF",
"K  c #44D3FF",
"L  c #4BD3FF",
"P  c #44DAFF",
"I  c #4BDAFF",
"U  c #53D3FF",
"Y  c #5FD3FF",
"T  c #55D8FF",
"R  c #5DDFFF",
"E  c #62C1FF",
"W  c #65CCFF",
"Q  c #6ACCFF",
"!  c #73C3FF",
"~  c #79C6FF",
"^  c #73CAFF",
"/  c #79C9FF",
"(  c #62D5FF",
")  c #6AD4FF",
"_  c #64DAFF",
"`  c #6EDAFF",
"'  c #71D6FF",
"]  c #79D4FF",
"[  c #76DEFF",
"{  c #7EDEFF",
"}  c #4CE2FF",
"|  c #57E4FF",
" . c #5FE8FF",
".. c #68E2FF",
"X. c #67EBFF",
"o. c #6BEDFF",
"O. c #73E5FF",
"+. c #7CE3FF",
"@. c #75EAFF",
"#. c #7DE9FF",
"$. c #62F4FF",
"%. c #6EF1FF",
"&. c #6BF9FF",
"*. c #75F4FF",
"=. c #78F1FF",
"-. c #76FCFF",
";. c #80C5FF",
":. c #81CCFF",
">. c #8DCFFF",
",. c #95C7FF",
"<. c #95CAFE",
"1. c #82DDFF",
"2. c #88DBFF",
"3. c #95D3FF",
"4. c #9AD5FE",
"5. c #94DEFF",
"6. c #9DDAFF",
"7. c #ABD5FF",
"8. c #A3DCFF",
"9. c #ABDBFF",
"0. c #B3DCFF",
"q. c #BEDFFE",
"w. c #84E3FF",
"e. c #8AE5FF",
"r. c #82EEFF",
"t. c #8BEAFF",
"y. c #94E4FF",
"u. c #9EE5FF",
"i. c #94EFFF",
"p. c #9BEEFF",
"a. c #83FEFF",
"s. c #8BFAFF",
"d. c #97F7FF",
"f. c #9BF5FF",
"g. c #93FBFF",
"h. c #9BFEFF",
"j. c #A1E2FF",
"k. c #ABE2FF",
"l. c #ABECFF",
"z. c #B6EBFF",
"x. c #BEEBFF",
"c. c #A4F4FF",
"v. c #ACF3FF",
"b. c #A4FDFF",
"n. c #AAFCFF",
"m. c #B2F2FF",
"M. c #BCF4FF",
"N. c #B6FBFF",
"B. c #BDFEFF",
"V. c #C0EFFF",
"C. c #CBECFF",
"Z. c #D0EDFF",
"A. c #C3F6FF",
"S. c #C3F5FF",
"D. c #CCF6FF",
"F. c #CBF7FF",
"G. c #C0FCFF",
"H. c #C2FEFF",
"J. c #CBF9FF",
"K. c #C8FEFF",
"L. c #CCFDFF",
"P. c #DBF6FF",
"I. c #D2FFFF",
"U. c #D3FEFF",
"Y. c #DAF9FF",
"T. c #DAFFFF",
"R. c #DCFFFF",
"E. c #E6F7FF",
"W. c #E0F7FF",
"Q. c #E1FEFF",
"!. c #E7FFFF",
"~. c #E4FFFF",
"^. c #E4FDFF",
"/. c #EAFFFF",
"(. c #EEFCFF",
"). c #ECFFFF",
"_. c #F1FEFF",
"`. c #F5FDFF",
"'. c #F5FFFF",
"]. c #F4FFFF",
"[. c #F7FEFF",
"{. c #F3FFFF",
"}. c #FBFFFF",
"|. c #F8FFFF",
" X c #FDFFFF",
".X c #FCFFFF",
"XX c white",
"oX c #FEFFFF",
/* pixels */
"                                                                                                ",
"                                                                                                ",
"                                                                                                ",
"                                            8                                                   ",
"                                          i 6.l + O $                                           ",
"                                      . O 8 z.2.* 2 v : X . .                                   ",
"                                . . . X O O z W G g 8.c o X $ . .                               ",
"                            + X o . . . . O e j.V.F ; $ . a M $ X X .                           ",
"                          X : s p - . . . O % ^ 1.e 2 % $ y n $ O . . . .                       ",
"                        . % k ,.z x . . . O % 1 r 2 = $ o s ~ = O X . . . .                     ",
"                      X . . ; : & . . . X X @ # 4 Q 8 X X s 4.e 6 $ X . . . +                   ",
"                    X & o o X X + . . . X + * > 0 F 6 O X o % 5 8.! $ . . $ <.a                 ",
"                  $ u ~ p X O O o X . . O * e 0 B 1 + X . X + 6 / z o . . $ c : .               ",
"                  o n q.k $ O o o O + O + 4 ..d.*.D w % & = % + * + o . . . . . X               ",
"                . X 6 p $ o . X o @ @ 5 y l m.B.Q.Q.y.W k.Q F * % O . . . . . . X X             ",
"              . X o X o % ; . o = 7 * 4 h 9.Q.[..X[._.Y.!.m.D._ @ X . . . . . . X + +           ",
"              X + = % @ ; p = 8 A +._ S J y.[.|.U..X.X|.[.|.[.t.w % . . . . . X O @ +           ",
"            O O @ * t W ^ >.W ' e.Q.f.*.l.y.Y.T._..X.X.X.X.X|.J.) o . X o + O O + @ @ @         ",
"            X O + # 0 r.A.C.j.V.P.H.a.b.).).|..X.X.X.X.X.X|.[.E.^ = o O 2 f 5 * j j @ +         ",
"            X O @ 4 e.T.H.F.t.S.S.R.H.H.K.[..X.X.X.X.X|._.B.d.5.A * @ # g ] A w 2 # @ O         ",
"            . X @ w O.c.a.g.s.J.E._..X|._..X.X.X.X.X.X.X.XH.e t 9 3 3 3 9 S R +.d @ + & +       ",
"            . X + # * C N &.g.[..X.X.X.X.X.X.X.X.X.X.X.X.XM.[ T B w q 0 0 q e.M.8 O O ! ^ ;     ",
"          . . . X O @ 3 B n.[..X.X.X.X.X.X.X.X.X.X.X.X|._..X[.b. .K B w 9 4 E Q % + i 9.z.i     ",
"          . . . . X O * I K._..X.X.X.X.X.X.X.X.X.X.X.X.X.X.X.X).*.I V 9 # @ O + O O $ a m       ",
"          . . . X X O * 9 I d.H..X.X.X.X.X.X.X.X.X.X.X.X.X.X.X|.g.K B 4 i O O @ + O + o $       ",
"          . X . O O % * 3 0 K -.).|..X.X.X.X.X.X.X.X.X.X.X.X.X.Xg.V L 4 = + # @ @ o o o y u     ",
"          X . X O O = g H U D s.h.B.R..X.X.X.X.X.X.X.X.X.X.X.XR.%.P 1.) 2 2 7 = O O X X v s     ",
"            X X O % d u.Y.m.e.D.g.s.B..X.X.X.X.X.X.X.X.X.X.X.XT.g.f.A.l.W 4 m y X X X .         ",
"            o X $ o e z._.U.=.b.s.b.R..X.X.X.X.X.X).|..X.X.X.X|._.Q.R.N.( 2 & $ . . . .         ",
"            o j p $ = { p.#.S S $.K..X.X.X|._..X.X.XH.T..X[.)..X|.U.B.&.$.S * O X . . .         ",
"            6 3.7.5 2 4 w P q N $.n./._._..XU.L.|.H.n.n.b.s.H./.R.h.U.b.%.V 3 * O . .           ",
"              j G * > 1 3 9 0 q } } o.h.s.s.d.B..X/.h.| K P a.Q.L.a.T.R.d.K q 3 @ O O           ",
"              * * 1 > > > > , r ' _ P $.P V +._..X.Xv.S q q X.U.f.L f.B.` r 3 > # @ +           ",
"              @ # # > # # > # 5 6.y.P C N 0 e.R.R.H.+.0 , < C @.L K Z U T 4 , > # @             ",
"                @ @ # # # # + % e B q q B Y D _ #...P 1 # , < 9 * 1 @ 1 4 9 > > # @             ",
"                  @ + @ @ + O O # 9 9 B l.P.w.#.Z Z w = z # > # @ O O + @ d h 1 #               ",
"                  + O O O O X X @ > # e C.E.+.` B L t # u + # @ + O O X O a i @ @               ",
"                      O O . . O @ @ @ 5 3.Q 2 3 B @.w.1 o O O + O X . . X o O                   ",
"                        X . o = 6 O X X = + # 3 0 L D # O . . + O X . . . .                     ",
"                          X % / 9.5 . . . X @ 3 0 r 9 # $ + o 6 5 O X X .                       ",
"                            % n ;.; . . . . @ , r #.9 1 f ! h k.x.2 X                           ",
"                                % . . . . X + > Z w.> 1 / 0.G k.6.2                             ",
"                                      . . X O > 1 3 # = = f + ; $                               ",
"                                            o @ > # @ +                                         ",
"                                                                    4.0.                        ",
"                                                                                                ",
"                                                                                                ",
"                                                                                                "
};
