/* XPM */
static char *c1f7c45f84a04458c435463fbd25d0e9uMVkzruyKybEdkGk[] = {
/* columns rows colors chars-per-pixel */
"48 48 185 2 ",
"   c None",
".  c #147EFF",
"X  c #1683FF",
"o  c #1984FF",
"O  c #178BFF",
"+  c #1A8CFF",
"@  c #1B94FF",
"#  c #1D9CFF",
"$  c #2784FF",
"%  c #2D83FF",
"&  c #218DFF",
"*  c #3A8CFF",
"=  c #2394FF",
"-  c #2A94FF",
";  c #239EFF",
":  c #2B9CFF",
">  c #3D91FF",
",  c #319AFF",
"<  c #1EA4FF",
"1  c #1FAAFF",
"2  c #23A3FF",
"3  c #2CA2FF",
"4  c #23ABFF",
"5  c #2BABFF",
"6  c #35A6FF",
"7  c #3CA3FF",
"8  c #34ABFF",
"9  c #3BACFF",
"0  c #24B4FF",
"q  c #29B2FF",
"w  c #27BAFF",
"e  c #2CBCFF",
"r  c #34B4FF",
"t  c #3CB2FF",
"y  c #32BCFF",
"u  c #3BBDFF",
"i  c #4098FF",
"p  c #44A6FF",
"a  c #4BADFF",
"s  c #42B3FF",
"d  c #4EB1FF",
"f  c #45BBFF",
"g  c #4BBBFF",
"h  c #54B1FF",
"j  c #59B7FF",
"k  c #51BBFF",
"l  c #5ABBFF",
"z  c #63BAFF",
"x  c #6DBDFF",
"c  c #74BEFF",
"v  c #2CC3FF",
"b  c #2CCAFF",
"n  c #32C3FF",
"m  c #3AC5FF",
"M  c #32CBFF",
"N  c #3CCDFF",
"B  c #33D0FF",
"V  c #3AD2FF",
"C  c #3DDBFF",
"Z  c #3CE9FF",
"A  c #44C5FF",
"S  c #4FC3FF",
"D  c #46CBFF",
"F  c #4ECDFF",
"G  c #53C4FF",
"H  c #5AC6FF",
"J  c #5CCBFF",
"K  c #40D4FF",
"L  c #4DD2FF",
"P  c #43DEFF",
"I  c #4CDDFF",
"U  c #54D0FF",
"Y  c #5FD4FF",
"T  c #52DBFF",
"R  c #5CDCFF",
"E  c #6CC4FF",
"W  c #64CAFF",
"Q  c #68CCFF",
"!  c #70C6FF",
"~  c #7CC4FF",
"^  c #71CBFF",
"/  c #7DCCFF",
"(  c #6AD1FF",
")  c #64DEFF",
"_  c #6CDDFF",
"`  c #71D5FF",
"'  c #7CD0FF",
"]  c #73DCFF",
"[  c #7BD9FF",
"{  c #40E2FF",
"}  c #4BE4FF",
"|  c #45EAFF",
" . c #4BEDFF",
".. c #53E0FF",
"X. c #5CE3FF",
"o. c #55EFFF",
"O. c #5CECFF",
"+. c #49F1FF",
"@. c #4CFAFF",
"#. c #54F4FF",
"$. c #5DF3FF",
"%. c #53F9FF",
"&. c #5CFAFF",
"*. c #63E4FF",
"=. c #6CE1FF",
"-. c #62EDFF",
";. c #75E4FF",
":. c #72EEFF",
">. c #7CEDFF",
",. c #64F3FF",
"<. c #6CF3FF",
"1. c #64FCFF",
"2. c #6DFDFF",
"3. c #74F3FF",
"4. c #7EF4FF",
"5. c #73FCFF",
"6. c #7CFEFF",
"7. c #81C7FF",
"8. c #85CAFF",
"9. c #93CFFF",
"0. c #8CD3FF",
"q. c #87DCFF",
"w. c #88DFFF",
"e. c #92D7FF",
"r. c #9CD2FF",
"t. c #95DFFF",
"y. c #9CDBFF",
"u. c #A7D7FF",
"i. c #ABDBFF",
"p. c #83E5FF",
"a. c #82EBFF",
"s. c #92E1FF",
"d. c #9EE3FF",
"f. c #96ECFF",
"g. c #99EDFF",
"h. c #85F2FF",
"j. c #89F4FF",
"k. c #82FEFF",
"l. c #8AFDFF",
"z. c #97F3FF",
"x. c #9BF5FF",
"c. c #94FDFF",
"v. c #9CFCFF",
"b. c #A3E5FF",
"n. c #ACE5FF",
"m. c #A9ECFF",
"M. c #B5E4FF",
"N. c #BAE4FF",
"B. c #B4EEFF",
"V. c #BDEAFF",
"C. c #A4F4FF",
"Z. c #ACF1FF",
"A. c #A4FFFF",
"S. c #ACFCFF",
"D. c #B5F3FF",
"F. c #BDF7FF",
"G. c #B3FBFF",
"H. c #BCFEFF",
"J. c #C2E4FF",
"K. c #CAE6FE",
"L. c #CBECFF",
"P. c #D7EFFF",
"I. c #C3F5FF",
"U. c #C4FDFF",
"Y. c #CCFEFF",
"T. c #D5F1FF",
"R. c #D4FEFF",
"E. c #DBFDFF",
"W. c #E2FEFF",
"Q. c #E5FFFF",
"!. c #E6FFFF",
"~. c #E5FEFF",
"^. c #EAF8FF",
"/. c #E9FFFF",
"(. c #EEFFFF",
"). c #EBFFFF",
"_. c #F1FFFF",
"`. c #F6FFFF",
"'. c #F4FFFF",
"]. c #FBFFFF",
"[. c #F8FFFF",
"{. c #FEFFFF",
"}. c white",
"|. c #FCFFFF",
" X c #FFFFFF",
/* pixels */
"                                                                                                ",
"                                                                                                ",
"                                                                                                ",
"                                                                                                ",
"                                                                                                ",
"                                                                                                ",
"                                                                                                ",
"                                                      h 8.                                      ",
"                              i m *                   c i.a                                     ",
"                                *     = # # # # O o o 6 6 o                                     ",
"                                z E : 8 @ < 1 < @ o - : = X X .                   b.            ",
"                                E b.d.g 2 1 0 0 5 s y.` 3 + o . X .                             ",
"                          r.a + : 8.V.( e 4 w N y [ ^.R.R t.= o X X o o                         ",
"                          ~ d + O p 7 u 0 w C S.*.Q L.Z.:.E.! + # = < ; @                       ",
"                          o & + + = o # 4 v #.$.} r ` X.G.W.I.J 4 D Y F ; +                     ",
"                        . . X + # 2 @ = u $.6.,.&.;.Z.x.-.>.W.j.v T Y.a.m ;   %                 ",
"                        . . o @ < M C D *.G.W.Y.k.4.Y.Y.O.C ..C B T z.=.t = . a s               ",
"                      . . . o = 5 M %.A.U.E.{.{.Q.A.E./.2.@.Z b N n N ] y.h , i *               ",
"                g   - + . . O - f ,.5.Q.{.{.{.{.{.R.R.].Y.&.#.Z ) J s e.J.z & .                 ",
"              ] f.Y 5 @ O O = ' W C.Q.{.{.{.{.{.{.{.{.{.E.l.U.j.I.b.8 6 q.U : .                 ",
"            _ E.).x.I w 0 4 q b.E.^.{.{.{.{.{.{.{.{.{._.]./.`.x.D.0.k Q M.e.; o -               ",
"            =.R.].Q.X.b b B P h.W.{.{.{.{.{.{.{.{.{.{.{.{.{.{.R.*.L 5 8 n.0.g t 7.!             ",
"            R U.Y.z.} |  .#.2.Y.{.{.{.{.{.{.{.{.{.{.{.{.{.{.{.U.5.+.y D W u = : r.x             ",
"              D.g.T w P +.&.l./.{.{.{.{.{.{.{.{.{.{.{.{.{.{.{.R.&.&.<.p.f.^ O + - p             ",
"                f s J h.3.} &.A.{.{.{.{.{.{.{.{.{.{.{.{.{.{.].H.<.-.H.R.I.V.d = - ,   8.        ",
"                g 3 ' L.b.N L H.{.{.{.{.{.{.{.{.{.{.{.{.{.{./.*.A q.T.L.^.V.s o .               ",
"                ~ ] [ M.0.G s._.{.{.{.{.{.{.{.{.{.{.{.{.{.{.Q.j.A L p.W _ _ = O .               ",
"              E J.N.] H 6 m h.E.`.{.{.{.{.{.{.{.{.{.{.{.{.{.{.Q.H.<.2.e 0 m = O o               ",
"              8.L.J.[ F 8 >.5.5.v.).{.{.{.{.{.].{.{.{.{.{.{.{.{.].Y.1.V V 0 < + O               ",
"              G ! 7.t r R U.A.+.%.A.Y.{.{.].].E.`.{.{.{.`._.).E./.Y.5.6.c.I 0 # @               ",
"                  k + + 8 Q u M @.v.H.`.`.U.c.U.R.Q.R.).E.H.6.c.G.S.I >.H.T 0 4 #               ",
"                      o O : 5 v | 1.A.`.U.6.1.k.A.l.R =.5.5.+.h.H.L.B.G U r 4 4                 ",
"                    7 7 @ 2 p.G.$.$.O.h.$.v.c.1.k.*.r 2 N | &.U.S.C.P.W - + @ @                 ",
"                    7.7.3 e S.R.,.P V N n _ <.#.1.T w @ @ 5 C I R q.u.j - . .                   ",
"                      k 4 v K } P b b 0 4 w b Z #.I b < O O 4 0 q : a + O X                     ",
"                        0 n 3.*.Z b w 5 # 1 1 M } { b 4 O X O < < @ ; O o                       ",
"                        v } H.H.3.I G 3 @ # # w C C v # o . X + @ # @ @                         ",
"                          N h.h.T m.i.W u ; @ 4 M M w # O . . . o O +                           ",
"                              m G B.J.H 4 < O < v b v J a X . . .                               ",
"                                t E E H 4 # O @ 0 v w t.j o .                                   ",
"                                        2 @ + @ 1 0 4 3 :                                       ",
"                                                  4                                             ",
"                                                                                                ",
"                                                      ;.F.                                      ",
"                                                    a.A.H.a.                                    ",
"                                                        I.E.                                    ",
"                                                                                                ",
"                                                                                                "
};
