/* XPM */
static char *result[] = {
/* columns rows colors chars-per-pixel */
"48 48 115 2 ",
"   c #1986FF",
".  c #1D8CFF",
"X  c #1C93FF",
"o  c #1D9DFF",
"O  c #238FFF",
"+  c #2096FF",
"@  c #2A95FF",
"#  c #239BFF",
"$  c #2A9DFF",
"%  c #3A9EFF",
"&  c #1DA3FF",
"*  c #22A5FF",
"=  c #2BA6FF",
"-  c #22ABFF",
";  c #2AAAFF",
":  c #35A2FF",
">  c #3AA6FE",
",  c #34ADFF",
"<  c #3BACFF",
"1  c #26B2FF",
"2  c #2DB1FF",
"3  c #2EB9FF",
"4  c #32B3FF",
"5  c #3CB4FF",
"6  c #33BDFF",
"7  c #41A4FF",
"8  c #4BA5FF",
"9  c #43ADFF",
"0  c #4EAEFE",
"q  c #4CB4FF",
"w  c #45BEFF",
"e  c #4ABBFF",
"r  c #51B4FF",
"t  c #57BFFF",
"y  c #58BFFF",
"u  c #63B6FF",
"i  c #69BFFF",
"p  c #35C1FF",
"a  c #3CC3FF",
"s  c #35C8FF",
"d  c #3CC8FF",
"f  c #3DD4FF",
"g  c #39D8FF",
"h  c #46C3FF",
"j  c #4BC0FF",
"k  c #44CCFF",
"l  c #4DCCFF",
"z  c #5AC1FF",
"x  c #5CCAFF",
"c  c #47D3FF",
"v  c #42DBFF",
"b  c #49DAFF",
"n  c #5BD4FF",
"m  c #5BDCFF",
"M  c #65C3FF",
"N  c #69C7FF",
"B  c #63CAFF",
"V  c #6DCBFF",
"C  c #7BC4FF",
"Z  c #6FD6FF",
"A  c #63DBFF",
"S  c #68DBFF",
"D  c #5FE1FF",
"F  c #55E8FF",
"G  c #62E1FF",
"H  c #77E3FF",
"J  c #7CE6FF",
"K  c #75EFFF",
"L  c #7AECFF",
"P  c #6BF1FF",
"I  c #7CF2FF",
"U  c #8CD6FF",
"Y  c #83DAFF",
"T  c #8ADBFF",
"R  c #94D5FF",
"E  c #9CD7FF",
"W  c #94DEFF",
"Q  c #9CD9FF",
"!  c #A5DEFF",
"~  c #80E7FF",
"^  c #8DE5FF",
"/  c #85EAFF",
"(  c #8CECFF",
")  c #91E5FF",
"_  c #95EAFF",
"`  c #8CF4FF",
"'  c #84FDFF",
"]  c #8CFBFF",
"[  c #93F2FF",
"{  c #9EF2FF",
"}  c #94FBFF",
"|  c #A3E4FF",
" . c #A6EFFF",
".. c #AAEEFF",
"X. c #B9E4FF",
"o. c #B5EFFF",
"O. c #BEEBFF",
"+. c #A3F2FF",
"@. c #ACF3FF",
"#. c #A1FFFF",
"$. c #ABFCFF",
"%. c #B4F6FF",
"&. c #BEF1FF",
"*. c #BAFDFF",
"=. c #CAF5FF",
"-. c #C4FCFF",
";. c #CCFCFF",
":. c #D2F7FF",
">. c #D3FDFF",
",. c #DCFEFF",
"<. c #E4FEFF",
"1. c #ECFFFF",
"2. c #F3FFFF",
"3. c #FEFFFF",
"4. c None",
/* pixels */
"4.4.4.4.4.4.4.4.4.4.4.4.4.4.4.4.4.4.4.4.4.4.4.4.4.4.4.4.4.4.4.4.4.4.4.4.4.4.4.4.4.4.4.4.4.4.4.4.",
"4.4.4.4.4.4.4.4.4.4.4.4.4.4.4.4.4.4.4.4.4.4.4.4.4.4.4.4.4.4.4.4.4.4.4.4.4.4.4.4.4.4.4.4.4.4.4.4.",
"4.4.4.4.4.4.4.4.4.4.4.4.4.4.4.4.4.4.4.4.4.4.4.4.4.4.4.4.4.4.4.4.4.4.4.4.4.4.4.4.4.4.4.4.4.4.4.4.",
"4.4.4.4.4.4.4.4.4.4.4.4.4.4.4.4.4.4.4.4.4.4.4.4.4.4.4.4.4.4.4.4.4.4.4.4.4.4.4.4.4.4.4.4.4.4.4.4.",
"4.4.4.4.4.4.4.4.4.4.4.4.4.4.4.4.4.4.4.4.4.4.4.4.4.4.4.4.4.4.4.4.4.4.4.4.4.4.4.4.4.4.4.4.4.4.4.4.",
"4.4.4.4.4.4.4.4.4.4.4.4.4.4.4.4.4.4.4.4.4.4.4.4.4.4.4.4.4.4.4.4.4.4.4.4.4.4.4.4.4.4.4.4.4.4.4.4.",
"4.4.4.4.4.4.4.4.4.4.4.4.4.4.4.4.4.4.4.4.4.4.4.4.4.4.4.4.4.4.4.4.4.4.4.4.4.4.4.4.4.4.4.4.4.4.4.4.",
"4.4.4.4.4.4.4.4.4.4.4.4.4.4.4.4.4.4.4.4.4.4.4.4.4.4.4.4.4.4.4.4.4.4.4.4.4.4.4.4.4.4.4.4.4.4.4.4.",
"4.4.4.4.4.4.4.4.4.4.4.4.4.4.4.4.4.4.4.4.4.4.4.4.4.4.4.4.4.4.4.4.4.4.4.4.4.4.4.4.4.4.4.4.4.4.4.4.",
"4.4.4.4.4.4.4.4.4.4.4.4.4.4.4.4.4.4.4.4.4.4.4.4.4.4.4.4.4.4.4.4.4.4.4.4.4.4.4.4.4.4.4.4.4.4.4.4.",
"4.4.4.4.4.4.4.4.4.4.4.4.4.4.4.4.4.4.4.4.4.4.4.4.4.4.4.4.4.4.4.4.4.4.4.4.4.4.4.4.4.4.4.4.4.4.4.4.",
"4.4.4.4.4.4.4.4.4.4.4.4.4.4.4.4.4.4.4.4.4.4.4.4.4.4.4.4.4.4.4.4.4.4.4.4.4.4.4.4.4.4.4.4.4.4.4.4.",
"4.4.4.4.4.4.4.4.4.4.4.4.4.4.4.4.4.4.4.4.4.4.4.4.4.4.4.4.4.4.4.4.4.4.4.4.4.4.4.4.4.4.4.4.4.4.4.4.",
"4.4.4.4.4.4.4.4.4.4.4.4.4.4.4.4.4.4.4.4.4.4.4.4.4.4.4.4.4.4.4.4.4.4.4.4.4.4.4.4.4.4.4.4.4.4.4.4.",
"4.4.4.4.4.4.4.4.4.4.4.4.4.4.4.4.4.4.4.C 4.4.7 | S = @ 8 4.4.C 4.4.4.4.4.4.4.4.4.4.4.4.4.4.4.4.4.",
"4.4.4.4.4.4.4.4.4.4.4.4.4.4.4.4.4.4.4.< > . B <.$.%.M %   . u 4.4.4.4.4.4.4.4.4.4.4.4.4.4.4.4.4.",
"4.4.4.4.4.4.4.4.4.4.4.4.4.4.4.4.4.4.9 Q ! t ; L } >.O.R q $   4.4.4.4.4.4.4.4.4.4.4.4.4.4.4.4.4.",
"4.4.4.4.4.4.4.4.4.4.4.4.4.4.4.4.4.$ B | =.i , +.1.1.) ^ =.w 9 + 4.4.4.4.4.4.4.4.4.4.4.4.4.4.4.4.",
"4.4.4.4.4.4.4.4.4.4.4.4.4.4.4.4.4.0 | _ l 5 N -.3.2.<.-.;.n E u   4.4.4.4.4.4.4.4.4.4.4.4.4.4.4.",
"4.4.4.4.4.4.4.4.4.4.4.4.4.4.4.4.  7 X.@.b { :.1.3.3.3.-.K 5 r $   4.4.4.4.4.4.4.4.4.4.4.4.4.4.4.",
"4.4.4.4.4.4.4.4.4.4.4.4.4.4.4.o * 5 A ..} } ^ 2.3.3.3.2.m x N 5 4 X 4.4.4.4.4.4.4.4.4.4.4.4.4.4.",
"4.4.4.4.4.4.4.4.4.4.4.4.4.4.4.* 2 h ..1.2.1.;.2.3.3.3.2.(  .,.$.I d 2 4.4.4.4.4.4.4.4.4.4.4.4.4.",
"4.4.4.4.4.4.4.4.4.4.4.4.4.4.4.& - 3 [ 2.3.3.3.3.3.3.3.3.[ ;.1.#.*.{ 5 4.4.4.4.4.4.4.4.4.4.4.4.4.",
"4.4.4.4.4.4.4.4.4.4.4.4.4.4.4.X - f ' 1.3.3.3.3.3.3.3.3.;.$.-.} %.U , 4.4.4.4.4.4.4.4.4.4.4.4.4.",
"4.4.4.4.4.4.4.4.4.4.4.4.4.4.4.+ - v P 1.3.3.3.3.3.3.3.3.2.;.} k w T t 4.4.4.4.4.4.4.4.4.4.4.4.4.",
"4.4.4.4.4.4.4.4.4.4.4.4.4.4.4.B h c ` 2.3.3.3.3.3.3.3.3.3.<.*.Z # Y z 4.4.4.4.4.4.4.4.4.4.4.4.4.",
"4.4.4.4.4.4.4.4.4.4.4.4.4.4.4.9 ! T / 2.3.3.3.3.3.3.3.3.2.*.L l X O 4.4.4.4.4.4.4.4.4.4.4.4.4.4.",
"4.4.4.4.4.4.4.4.4.4.4.4.4.4.4.: T H F } 3.,.2.3.3.1.2.2.2.` d 3 - X 4.4.4.4.4.4.4.4.4.4.4.4.4.4.",
"4.4.4.4.4.4.4.4.4.4.4.4.4.4.4.4.6 d p G <.;.2.3.,.#.$.L ] P m 6 - & 4.4.4.4.4.4.4.4.4.4.4.4.4.4.",
"4.4.4.4.4.4.4.4.4.4.4.4.4.4.4.4.; - - d P #.3.3.,.>.J s g c ( 6 1 4.4.4.4.4.4.4.4.4.4.4.4.4.4.4.",
"4.4.4.4.4.4.4.4.4.4.4.4.4.4.4.4.4.o + j [ } :.-.,.<.` L b 1 * e x 4.4.4.4.4.4.4.4.4.4.4.4.4.4.4.",
"4.4.4.4.4.4.4.4.4.4.4.4.4.4.4.4.4.4.. n *.~ h l >.1.1.1.%.a X 9 4.4.4.4.4.4.4.4.4.4.4.4.4.4.4.4.",
"4.4.4.4.4.4.4.4.4.4.4.4.4.4.4.4.4.4.4.; e $ = ; A `  .=.$.) q 4.4.4.4.4.4.4.4.4.4.4.4.4.4.4.4.4.",
"4.4.4.4.4.4.4.4.4.4.4.4.4.4.4.4.4.4.4.4.4.4.4.* p 6 2 j | <.W 4.4.4.4.4.4.4.4.4.4.4.4.4.4.4.4.4.",
"4.4.4.4.4.4.4.4.4.4.4.4.4.4.4.4.4.4.4.4.4.4.4.4.4.4.4.4.4.U 4.4.4.4.4.4.4.4.4.4.4.4.4.4.4.4.4.4.",
"4.4.4.4.4.4.4.4.4.4.4.4.4.4.4.4.4.4.4.4.4.4.4.4.4.4.4.4.4.4.4.4.4.4.4.4.4.4.4.4.4.4.4.4.4.4.4.4.",
"4.4.4.4.4.4.4.4.4.4.4.4.4.4.4.4.4.4.4.4.4.4.4.4.4.4.4.4.4.4.4.4.4.4.4.4.4.4.4.4.4.4.4.4.4.4.4.4.",
"4.4.4.4.4.4.4.4.4.4.4.4.4.4.4.4.4.4.4.4.4.4.4.4.4.4.4.4.4.4.4.4.4.4.4.4.4.4.4.4.4.4.4.4.4.4.4.4.",
"4.4.4.4.4.4.4.4.4.4.4.4.4.4.4.4.4.4.4.4.4.4.4.4.4.4.4.4.4.4.4.4.4.4.4.4.4.4.4.4.4.4.4.4.4.4.4.4.",
"4.4.4.4.4.4.4.4.4.4.4.4.4.4.4.4.4.4.4.4.4.4.4.4.4.4.4.4.4.4.4.4.4.4.4.4.4.4.4.4.4.4.4.4.4.4.4.4.",
"4.4.4.4.4.4.4.4.4.4.4.4.4.4.4.4.4.4.4.4.4.4.4.4.4.4.4.4.4.4.4.4.4.4.4.4.4.4.4.4.4.4.4.4.4.4.4.4.",
"4.4.4.4.4.4.4.4.4.4.4.4.4.4.4.4.4.4.4.4.4.4.4.4.4.4.4.4.4.4.4.4.4.4.4.4.4.4.4.4.4.4.4.4.4.4.4.4.",
"4.4.4.4.4.4.4.4.4.4.4.4.4.4.4.4.4.4.4.4.4.4.4.4.4.4.4.4.4.4.4.4.4.4.4.4.4.4.4.4.4.4.4.4.4.4.4.4.",
"4.4.4.4.4.4.4.4.4.4.4.4.4.4.4.4.4.4.4.4.4.4.4.4.4.4.4.4.4.4.4.4.4.4.4.4.4.4.4.4.4.4.4.4.4.4.4.4.",
"4.4.4.4.4.4.4.4.4.4.4.4.4.4.4.4.4.4.4.4.4.4.4.4.4.4.4.4.4.4.4.4.4.4.4.4.4.4.4.4.4.4.4.4.4.4.4.4.",
"4.4.4.4.4.4.4.4.4.4.4.4.4.4.4.4.4.4.4.4.4.4.4.4.4.4.4.4.4.4.4.4.4.4.4.4.4.4.4.4.4.4.4.4.4.4.4.4.",
"4.4.4.4.4.4.4.4.4.4.4.4.4.4.4.4.4.4.4.4.4.4.4.4.4.4.4.4.4.4.4.4.4.4.4.4.4.4.4.4.4.4.4.4.4.4.4.4.",
"4.4.4.4.4.4.4.4.4.4.4.4.4.4.4.4.4.4.4.4.4.4.4.4.4.4.4.4.4.4.4.4.4.4.4.4.4.4.4.4.4.4.4.4.4.4.4.4."
};
