/* XPM */
static char *result[] = {
/* columns rows colors chars-per-pixel */
"48 48 162 2 ",
"   c #147EFF",
".  c #1683FF",
"X  c #1A85FF",
"o  c #1789FF",
"O  c #1B8CFF",
"+  c #1694FF",
"@  c #1C93FF",
"#  c #1C9BFF",
"$  c #228DFF",
"%  c #288FFF",
"&  c #2494FF",
"*  c #2A95FF",
"=  c #219BFF",
"-  c #2D9BFF",
";  c #3496FF",
":  c #339CFF",
">  c #1EA3FF",
",  c #1DA9FF",
"<  c #23A4FF",
"1  c #2CA3FF",
"2  c #23AAFF",
"3  c #2AADFF",
"4  c #34A2FF",
"5  c #3AA2FF",
"6  c #33ACFF",
"7  c #3BACFF",
"8  c #25B2FF",
"9  c #2AB3FF",
"0  c #2BBBFF",
"q  c #34B5FF",
"w  c #3AB1FF",
"e  c #33BCFF",
"r  c #3CBBFF",
"t  c #44A3FF",
"y  c #44ADFF",
"u  c #4AAEFF",
"i  c #56AFFF",
"p  c #44B4FF",
"a  c #4CB3FF",
"s  c #44BCFF",
"d  c #4ABBFF",
"f  c #53B2FF",
"g  c #5BB4FF",
"h  c #52BCFF",
"j  c #5FBCFF",
"k  c #61B4FF",
"l  c #6BB4FF",
"z  c #63BBFF",
"x  c #72BBFF",
"c  c #34C2FF",
"v  c #3AC1FF",
"b  c #35C9FF",
"n  c #3CCBFF",
"m  c #3BD4FF",
"M  c #43C5FF",
"N  c #4EC5FF",
"B  c #43CAFF",
"V  c #4CCCFF",
"C  c #52C4FF",
"Z  c #58C7FF",
"A  c #53CAFF",
"S  c #5BCCFF",
"D  c #44D2FF",
"F  c #4AD4FF",
"G  c #44DAFF",
"H  c #48DEFF",
"J  c #5BD3FF",
"K  c #54DAFF",
"L  c #5EDBFF",
"P  c #63C2FF",
"I  c #6DC6FF",
"U  c #63C8FF",
"Y  c #6FCBFF",
"T  c #73C5FF",
"R  c #7AC3FF",
"E  c #72CEFF",
"W  c #7BCAFF",
"Q  c #66D4FF",
"!  c #66DAFF",
"~  c #6CDAFF",
"^  c #76D3FF",
"/  c #74DCFF",
"(  c #7BDBFF",
")  c #4AE3FF",
"_  c #53E5FF",
"`  c #5CE2FF",
"'  c #56E9FF",
"]  c #5BF3FF",
"[  c #62E2FF",
"{  c #6AE7FF",
"}  c #64EBFF",
"|  c #6AECFF",
" . c #77E2FF",
".. c #7EE3FF",
"X. c #7CEBFF",
"o. c #63F0FF",
"O. c #6CF4FF",
"+. c #6BF9FF",
"@. c #73F6FF",
"#. c #79F2FF",
"$. c #73F9FF",
"%. c #7AFBFF",
"&. c #84C6FF",
"*. c #83C8FF",
"=. c #8DCBFF",
"-. c #95CDFE",
";. c #9ACFFF",
":. c #86D7FF",
">. c #8AD0FE",
",. c #81DCFF",
"<. c #8DDBFF",
"1. c #90D2FF",
"2. c #99D3FE",
"3. c #9ADDFF",
"4. c #ADD6FE",
"5. c #AADCFF",
"6. c #B5DEFF",
"7. c #83E5FF",
"8. c #8EE3FF",
"9. c #85EFFF",
"0. c #8BE9FF",
"q. c #97E1FF",
"w. c #9CE7FF",
"e. c #91EAFF",
"r. c #9DE9FF",
"t. c #8FF7FF",
"y. c #84FCFF",
"u. c #8DFCFF",
"i. c #95F3FF",
"p. c #9AF3FF",
"a. c #95FDFF",
"s. c #9BFDFF",
"d. c #A3E7FF",
"f. c #ADE4FF",
"g. c #A2EBFF",
"h. c #B6E4FF",
"j. c #B8E4FF",
"k. c #B4EFFF",
"l. c #BAEEFF",
"z. c #A7F7FF",
"x. c #ABF4FF",
"c. c #A4FDFF",
"v. c #ABFEFF",
"b. c #B4F3FF",
"n. c #BEF3FF",
"m. c #B4FFFF",
"M. c #BBFEFF",
"N. c #C4EBFF",
"B. c #D7EEFF",
"V. c #C5F2FF",
"C. c #CCF2FF",
"Z. c #C4FEFF",
"A. c #CBFCFF",
"S. c #DBF7FF",
"D. c #D5FDFF",
"F. c #DDFFFF",
"G. c #E1F3FF",
"H. c #E3FEFF",
"J. c #ECFFFF",
"K. c #F4FFFF",
"L. c #FEFFFF",
"P. c None",
/* pixels */
"P.P.P.P.P.P.P.P.P.P.P.P.P.P.P.P.P.P.P.P.P.P.P.P.P.P.P.P.P.P.P.P.P.P.P.P.P.P.P.P.P.P.P.P.P.P.P.P.",
"P.P.P.P.P.P.P.P.P.P.P.P.P.P.P.P.P.P.P.P.P.P.P.P.P.P.P.P.P.P.P.P.P.P.P.P.P.P.P.P.P.P.P.P.P.P.P.P.",
"P.P.P.P.P.P.P.P.P.P.P.P.P.P.P.P.P.P.P.P.P.P.P.P.P.P.P.P.P.P.P.P.P.P.P.P.P.P.P.P.P.P.P.P.P.P.P.P.",
"P.P.P.P.P.P.P.P.P.P.P.P.P.P.P.P.P.P.P.P.P.P.P.P.P.P.P.P.P.P.P.P.P.P.P.P.P.P.P.P.P.P.P.P.P.P.P.P.",
"P.P.P.P.P.P.P.P.P.P.P.P.P.P.P.P.P.P.P.P.P.T f.w P.P.P.P.P.P.P.P.P.P.P.P.P.P.P.P.P.P.P.P.P.P.P.P.",
"P.P.P.P.P.P.P.P.P.P.P.P.P.P.P.P.P.P.P.P.P.p k.d 6 h ;.: P.P.P.P.P.P.P.P.P.P.P.P.P.P.P.P.P.P.P.P.",
"P.P.P.P.P.P.P.P.P.P.P.P.P.P.P.P.P.P.P.P.. & C <.:.d R ; X % ; P.P.P.P.P.P.P.P.P.P.P.P.P.P.P.P.P.",
"P.P.P.P.P.P.P.P.P.P.P.P.P.P.P.P.O       . O d l.3.7 ;   % &.l O P.P.P.P.P.P.P.P.P.P.P.P.P.P.P.P.",
"P.P.P.P.P.P.P.P.P.P.P.P.P.P.k x R *     . X 7 C A - < $ X u 5 o .   P.P.P.P.P.P.P.P.P.P.P.P.P.P.",
"P.P.P.P.P.P.P.P.P.P.P.P.P.* l x t O     . o @ > r 6 % X $ -.W O &     P.P.P.P.P.P.P.P.P.P.P.P.P.",
"P.P.P.P.P.P.P.P.P.P.P.P.P.X & * X     . . O @ < d Y - . $ l z p z : .     P.P.P.P.P.P.P.P.P.P.P.",
"P.P.P.P.P.P.P.P.P.P.: - *   . . X       X = < 8 0 6 O .   . @ z j.u     . f 4.P.P.P.P.P.P.P.P.P.",
"P.P.P.P.P.P.P.P.P.: -.2.* . o o o X . . @ w v D n # O . X o $ 4 d -       $ * P.P.P.P.P.P.P.P.P.",
"P.P.P.P.P.P.P.P.P.P.x -.5 X X . . O O O - h i.v.u.( p a u 7 O O & o           P.P.P.P.P.P.P.P.P.",
"P.P.P.P.P.P.P.P.P.$ & - & X   . & @ & 6 j 3.D.J.L.K.q.h.C. .U 3 O .             P.P.P.P.P.P.P.P.",
"P.P.P.P.P.P.P.P.P.o   X 5 $ o O s q q q I C.K.K.K.L.K.H.A.J.A.V O .           . o P.P.P.P.P.P.P.",
"P.P.P.P.P.P.P.P.@ 1 1 1 z 5 6 C 8.z.K K ~ g.K.J.F.L.L.L.K.L.F.L w X     . . . o O P.P.P.P.P.P.P.",
"P.P.P.P.P.P.P.P.@ 1 A 7.h.3.( w.V.F.y.v.S.l.H.J.L.L.L.L.L.L.K.V.7 . . X O & O @ + @ P.P.P.P.P.P.",
"P.P.P.P.P.P.P.O # 3 ~ z.D.N.e.G.A.v.u.m.J.K.L.L.L.L.L.K.K.J.H.N.a = o & h P 6 = E = P.P.P.P.P.P.",
"P.P.P.P.P.P.P.O # B A.Z.Z.p.7.D.n.H.K.Z.H.L.L.L.L.L.L.K.H.i.S S 3 # # 3 N ~ B 3 # @ P.P.P.P.P.P.",
"P.P.P.P.P.P.P.X = r ! | @.%.m.K.K.L.L.L.L.L.L.L.L.L.L.L.K.0.w e 0 8 8 8 9 D i.( 1 o - P.P.P.P.P.",
"P.P.P.P.P.P.P.. o @ 2 0 D y.F.L.L.L.L.L.L.L.L.L.L.L.L.K.K.n.x.F v e 0 9 9 r x.,.* O u 5.W P.P.P.",
"P.P.P.P.P.P.P.  . X @ 9 O.H.L.L.L.L.L.L.L.L.L.L.L.L.L.K.K.L.K.m.o.F v 8 2 = u * O O f 6.&.P.P.P.",
"P.P.P.P.P.P.P.    . O 3 ` A.H.K.L.L.L.L.L.L.L.L.L.L.L.L.L.L.L.M.} n c < @ o o o X X : 5 P.P.P.P.",
"P.P.P.P.P.P.P.. . o @ # 8 F y.Z.L.L.L.L.L.L.L.L.L.L.L.L.L.L.L.K.O.c v 7 ; O @ @ O o o P.P.P.P.P.",
"P.P.P.P.P.P.P.. o O - 3 8 e _ s.D.K.L.L.L.L.L.L.L.L.L.L.L.L.L.F.] c J r @ # = @ o X P.P.R P.P.P.",
"P.P.P.P.P.P.P.. o O w ( w.V 0.c.$.v.J.L.L.L.L.L.L.L.L.L.L.L.K.c.[ ~ x.h p 6 g @ o . P.P.P.P.P.P.",
"P.P.P.P.P.P.P.. O 4 Q S.J.g.g.A.O.c.H.L.L.L.L.L.L.K.L.L.L.L.L.D.v.Z.A.w.7 1 x $ .   P.P.P.P.P.P.",
"P.P.P.P.P.P.P.& o X d C.J.i.O.@.a.F.L.L.L.K.L.L.K.J.K.L.L.L.K.L.K.J.Z.a.` = X o     P.P.P.P.P.P.",
"P.P.P.P.P.P.5 1.g * M C X.D e D O.J.L.L.L.K.J.K.L.H.v.F.H.H.F.L.J.c.z.+.' r # O . P.P.P.P.P.P.P.",
"P.P.P.P.P.P.y 5.x @ 2 < e c 9 G +.s.D.Z.F.H.v.F.H.m.u.y.O.i.m.K.a.a.H.m.} n 8 # o P.P.P.P.P.P.P.",
"P.P.P.P.P.P.P.7 6 < > 2 , 2 8 e D G #.+.O.` s.J.L.H.| v b H s.K.s.s.F.A.L e 2 > @ P.P.P.P.P.P.P.",
"P.P.P.P.P.P.P.P.# > > , > > 2 A g.J ) ) b n A.K.K.J.X.e 8 c #.M.` L ..p.M 8 2 > @ P.P.P.P.P.P.P.",
"P.P.P.P.P.P.P.P.P.# # # > # @ y <.! m b 0 r e.M.M.i.B > , 8 b F 8 v 8 r B 2 > > P.P.P.P.P.P.P.P.",
"P.P.P.P.P.P.P.P.P.P.@ # # @ X & q 8 0 0 <.( M ` J V r @ # , , < @ @ @ = 1 8 > > P.P.P.P.P.P.P.P.",
"P.P.P.P.P.P.P.P.P.P.P.O O o . o # 2 8 Q H.S.r./ M v 2 z f + > @ O o o o @ ^ 3 P.P.P.P.P.P.P.P.P.",
"P.P.P.P.P.P.P.P.P.P.P.P.o . . o @ # @ R B.d.r r M [ s @ o o @ + o o . . o : P.P.P.P.P.P.P.P.P.P.",
"P.P.P.P.P.P.P.P.P.P.P.P.P.  o @ @ o @ y i s > 8 n 9.A # o . o O o . .   P.P.P.P.P.P.P.P.P.P.P.P.",
"P.P.P.P.P.P.P.P.P.P.P.P.P.P.& z 5 $ . X . o > 8 e v 9 @ .     @ X .   P.P.P.P.P.P.P.P.P.P.P.P.P.",
"P.P.P.P.P.P.P.P.P.P.P.P.P.P.7 j.=.$       o # 8 e c < @ : * 5 T u P.P.P.P.P.P.P.P.P.P.P.P.P.P.P.",
"P.P.P.P.P.P.P.P.P.P.P.P.P.P.P.k - & P.    o # 2  .,.2 w >.=.^ G.1.P.P.P.P.P.P.P.P.P.P.P.P.P.P.P.",
"P.P.P.P.P.P.P.P.P.P.P.P.P.P.P.P.P.P.P.P.P.P.@ 2 r r # 1 *.W C W Z P.P.P.P.P.P.P.P.P.P.P.P.P.P.P.",
"P.P.P.P.P.P.P.P.P.P.P.P.P.P.P.P.P.P.P.P.P.P.P.P.P.P.P.P.P.P.P.P.P.P.P.P.P.P.P.P.P.P.P.P.P.P.P.P.",
"P.P.P.P.P.P.P.P.P.P.P.P.P.P.P.P.P.P.P.P.P.P.P.P.P.P.P.P.P.P.P.P.P.P.P.P.P.P.P.P.P.P.P.P.P.P.P.P.",
"P.P.P.P.P.P.P.P.P.P.P.P.P.P.P.P.P.P.P.P.P.P.P.P.P.P.P.P.P.P.P.P.P.P.P.P.P.P.P.P.P.P.P.P.P.P.P.P.",
"P.P.P.P.P.P.P.P.P.P.P.P.P.P.P.P.P.P.P.P.P.P.P.P.P.P.P.P.P.P.P.P.P.P.P.P.P.P.P.P.P.P.P.P.P.P.P.P.",
"P.P.P.P.P.P.P.P.P.P.P.P.P.P.P.P.P.P.P.P.P.P.P.P.P.P.P.P.P.P.P.P.P.P.P.P.P.P.P.P.P.P.P.P.P.P.P.P.",
"P.P.P.P.P.P.P.P.P.P.P.P.P.P.P.P.P.P.P.P.P.P.P.P.P.P.P.P.P.P.P.P.P.P.P.P.P.P.P.P.P.P.P.P.P.P.P.P."
};
