/* XPM */
static char *result[] = {
/* columns rows colors chars-per-pixel */
"48 48 185 2 ",
"   c #147EFF",
".  c #1F7FFF",
"X  c #1683FF",
"o  c #1A85FF",
"O  c #1789FF",
"+  c #1A8CFF",
"@  c #1A93FF",
"#  c #1C9BFF",
"$  c #2384FF",
"%  c #2B84FF",
"&  c #218DFF",
"*  c #3785FF",
"=  c #368BFF",
"-  c #3A8CFF",
";  c #2394FF",
":  c #2994FF",
">  c #239CFF",
",  c #2A9BFF",
"<  c #3495FF",
"1  c #329EFF",
"2  c #1EA3FF",
"3  c #1FACFF",
"4  c #22A5FF",
"5  c #2CA2FF",
"6  c #22ADFF",
"7  c #2BABFF",
"8  c #33A2FF",
"9  c #3AA4FF",
"0  c #34ACFF",
"q  c #3BACFF",
"w  c #24B3FF",
"e  c #2BB3FF",
"r  c #27BBFF",
"t  c #2BBBFF",
"y  c #35B2FF",
"u  c #3CB2FF",
"i  c #34BCFF",
"p  c #3ABBFF",
"a  c #44A6FF",
"s  c #4CA5FF",
"d  c #42AAFF",
"f  c #4AACFF",
"g  c #55A9FE",
"h  c #43B3FF",
"j  c #4BB4FF",
"k  c #44BBFF",
"l  c #49B9FF",
"z  c #51B1FF",
"x  c #5BB3FF",
"c  c #53BAFF",
"v  c #62B5FF",
"b  c #6BB6FF",
"n  c #65BDFF",
"m  c #6ABBFF",
"M  c #78B7FE",
"N  c #71BDFF",
"B  c #2CC3FF",
"V  c #2ECCFF",
"C  c #31C5FF",
"Z  c #3AC2FF",
"A  c #33CCFF",
"S  c #3ACFFF",
"D  c #34D5FF",
"F  c #3AD5FF",
"G  c #3CDAFF",
"H  c #3BE3FF",
"J  c #43C3FF",
"K  c #4AC3FF",
"L  c #45CCFF",
"P  c #4CCCFF",
"I  c #53C2FF",
"U  c #5DC3FF",
"Y  c #51CCFF",
"T  c #59CBFF",
"R  c #43D4FF",
"E  c #4CD2FF",
"W  c #46DBFF",
"Q  c #4ADEFF",
"!  c #52D4FF",
"~  c #58D7FF",
"^  c #64C7FF",
"/  c #6DC6FF",
"(  c #63CEFF",
")  c #6BCBFF",
"_  c #75C4FE",
"`  c #79C7FD",
"'  c #72CAFF",
"]  c #7DC9FE",
"[  c #61D6FF",
"{  c #6DD2FF",
"}  c #64DBFF",
"|  c #6DDAFF",
" . c #73D3FF",
".. c #7BD6FF",
"X. c #75DBFF",
"o. c #7EDCFF",
"O. c #44E3FF",
"+. c #4AE4FF",
"@. c #47EDFF",
"#. c #4CECFF",
"$. c #52E3FF",
"%. c #5CE4FF",
"&. c #52ECFF",
"*. c #5CECFF",
"=. c #45F3FF",
"-. c #4BF6FF",
";. c #52F4FF",
":. c #5EF5FF",
">. c #56FBFF",
",. c #5BF9FF",
"<. c #64E4FF",
"1. c #6CE5FF",
"2. c #62EBFF",
"3. c #6DEEFF",
"4. c #72E1FF",
"5. c #74ECFF",
"6. c #7BEBFF",
"7. c #66F5FF",
"8. c #6CF7FF",
"9. c #63FDFF",
"0. c #6BFCFF",
"q. c #72F5FF",
"w. c #7CF4FF",
"e. c #75FDFF",
"r. c #7AFDFF",
"t. c #83C9FF",
"y. c #8DCBFF",
"u. c #90CEFF",
"i. c #98CFFE",
"p. c #8DD0FF",
"a. c #82DBFF",
"s. c #8ADFFF",
"d. c #97D5FF",
"f. c #9AD5FF",
"g. c #93DDFF",
"h. c #9CDCFF",
"j. c #A3D5FF",
"k. c #ACDCFF",
"l. c #B2DEFF",
"z. c #84E4FF",
"x. c #8CE4FF",
"c. c #8DEBFF",
"v. c #99E1FF",
"b. c #96EDFF",
"n. c #9BEDFF",
"m. c #82F1FF",
"M. c #8DF2FF",
"N. c #84FCFF",
"B. c #8DFCFF",
"V. c #96F5FF",
"C. c #99F7FF",
"Z. c #93FCFF",
"A. c #9DFDFF",
"S. c #A3E0FF",
"D. c #ADE6FF",
"F. c #A4EEFF",
"G. c #A8E9FF",
"H. c #B4E3FF",
"J. c #BBE5FF",
"K. c #A2F4FF",
"L. c #AAF3FF",
"P. c #A3FFFF",
"I. c #A9FEFF",
"U. c #B3F5FF",
"Y. c #BBF4FF",
"T. c #B3FDFF",
"R. c #BBFEFF",
"E. c #C5E4FF",
"W. c #CAE7FF",
"Q. c #C2EAFF",
"!. c #CAEAFF",
"~. c #D4ECFF",
"^. c #C5F4FF",
"/. c #C5FDFF",
"(. c #CBFEFF",
"). c #D6F7FF",
"_. c #DAF5FF",
"`. c #D4FEFF",
"'. c #DDFDFF",
"]. c #E8F5FF",
"[. c #E3FFFF",
"{. c #ECFFFF",
"}. c #F5FFFF",
"|. c #FFFFFF",
" X c None",
/* pixels */
" X X X X X X X X X X X X X X X X X X X X X X X X X X X X X X X X X X X X X X X X X X X X X X X X",
" X X X X X X X X X X X X X X X X X X X X X X X X X X X X X X X X X X X X X X X X X X X X X X X X",
" X X X X X X X X X X X X X X X X X X X X X X X X X X X X X X X X X X X X X X X X X X X X X X X X",
" X X X X X X X X X X X X X X X X X X X Xd. X X X X X X X X X X X X X X X X X X X X X X X X X X X",
" X X X X X X X X X X X X X X X X X X X X X X X X X X X X X X X X` E. X X X X X X X X X X X X X X",
" X X X X X X X X X X X X X X X X X X X X X X X X X X X X X X X X X]  X X X X X X X X X X X X X X",
" X X X X X X X X X X X X X X X X X X X X X X XO o       ; 9 :  X X X X X X X X X X X X X X X X X",
" X X X X X X X X X X X X X X X X- u - @ + + + @ O X   & x k.s O    X X X X X X X X X X X X X X X",
" X X X X X X X X X X X X X X X X- q = + @ @ @ @ @ O X   z t.9 o        X X X X X X X X X X X X X",
" X X X X X X X XJ. X X X X X X X$ < 1 o > # # 2 # O o o : , o o         X  X X X X X X X X X X X",
" X X X X X X X X X X X X Xv s O o b g.c h # 2 6 6 # @ d h ; O           X O  X X X Xh. X X X X X",
" X X X X X X X X X X X X Xa j a o h x.Q.) e 6 w r 7 T Q.F.k 0 o       X   O +  X X X X X X X X X",
" X X X X X X X X X X Xi.; 9 j.m & o x f.( r w A %.P { ].'.1.Y.z o + + + @ + O O  X X X X X X X X",
" X X X X X X X X X X Xd o o s 1 o + , , 7 6 r F A.3.J h.x.M.'.h., # 7 e e @ O X    X X X X X X X",
" X X X X X X X X X X X        o + @ ; o + 7 A >.+.&.P { 5.V.`.'.c.w L V.| 7 > O   o  X X X X X X",
" X X X X X X X X X X X        o + 2 6 7 , J N.A.r.9.<.Y.R.&.+.U.w.D $.(.c.p , o = - .  X X X X X",
" X X X X X X X X X X          o ; 4 B -.*.w.T.}.{./.Z./.[.8.H H D V A } 5.I , $ q u %  X X X X X",
" X X X X X X X X X0 o O o     o o y S ;.R.{.{.|.|.}.R.`.}.A.>.=.A R i Z ' J.m 1 * * .  X X X X X",
" X X X X X X X XJ T q 8 o o X o q y w.B.{.|.|.|.|.|.[.[.|.[.r.e.*.z.a.J N H.^ >        X X X X X",
" X X X X X X X4.n.^.z.e 2 # @ > g.k.L.}.|.|.|.|.|.|.|.|.}.[.I.'.B.(.J.x q a. .8   o X    X X X X",
" X X X X X X XE `.}./.$.B r r e | '.}.|.|.|.|.|.|.|.|.|.|.|.}.|.^.c. .0 c J.k.l + 9 8 &  X X X X",
" X X X X X X X| R.{.[.r.F D G -.P.{.|.|.|.|.|.|.|.|.|.|.|.|.|.|.(.q.$.e y x./ 0 u f.y.;  X X X X",
" X X X X X X XP ^.`.5.A O.-.>.r.`.|.|.|.|.|.|.|.|.|.|.|.|.|.|.|.[.e.-.S P [ J + ; v v o  X X X X",
" X X X X X X Xq o.a.E i +.&.;.e./.|.|.|.|.|.|.|.|.|.|.|.|.|.|.|.[.0.;.B.I.L.v.+ ; : q o g  X X X",
" X X X X X X X X: k 8 ) F.V.R &.P.}.|.|.|.|.|.|.|.|.|.|.|.|.|.}.V.3.<.^.)._._.U @ $ % X M  X X X",
" X X X X X X X X& c u  .W.H.k P /.|.|.|.|.|.|.|.|.|.|.|.|.|.|.{.1.p ..J.J.^.D.l o        X X X X",
" X X X X X X X Xd u.h.X.x./ P b.}.|.|.|.|.|.|.|.|.|.|.|.|.|.|.}.R.<.W 3.J Z <.; o X      X X X X",
" X X X X X X Xh ' Q.W.o.l > J *.P.[.}.|.|.|.|.|.|.|.|.|.|.|.|.|.}.[.Z.e.S r r > + O X O  X X X X",
" X X X X X X X X/ H.l...! L K.Z.0.0.`.}.|.|.|.|.{.}.|.|.|.|.|.|.}.|.{.r.&.#.t 6 @ O O O  X X X X",
" X X X X X X Xu q l / 5 > K L.V.O.-.B.T.}.|.{.[.[.{.|.|.|.{.[.(./.R./.7.q.R.2.r 4 # @ @  X X X X",
" X X X X X X X X Xo h o o > d 0 w -.N.T.}.{.I.r.A.R.(.A././.A.0.q.U.(.} } C.~ w 6 2 # @  X X X X",
" X X X X X X X X X X; & o + @ i E #.,.B.'.P.e.r.r.Z.w.P p &.9.>.A.(.U._.U l 5 2 # # # #  X X X X",
" X X X X X X X X X Xo x x > 7 n.[.e.&.$.%.W C.I.9.e.%.i @ 7 F @.C.Z.b.~.' & o O + + +  X X X X X",
" X X X X X X X X X X: _ t.4 e 6.I.*.F A B t B O.-.:.+.t 2 + > B A R U t.f , X     X  X X X X X X",
" X X X X X X X X X X X1 0 w t G F G V B r 2 w r D #.+.A 6 + O @ 6 2 @ q O X        X X X X X X X",
" X X X X X X X X' u. X X2 w A V.Z.+.D t 0 @ 2 2 B W W V 3 +   X # # @ > + O X    X X X X X X X X",
" X X X X X X X X X X X X3 r W T.R.r.5.) q 7 # @ 6 F G B # O     O @ @ @ O @ O    X X X X X X X X",
" X X X X X X X X X X X X X3 i $.<.R H.E...i 4 @ 4 B V B 7 @       X X O O O +  X X X X X X X X X",
" X X X X X X X X X X X X X X7 4 y K j.k.^ 7 2 O # r B B X./ o             X  X X X X X X X X X X",
" X X X X X X X X X X X X X X X X+ , l j l 7 # + @ 6 r w ) j o            X X X X X X X X X X X X",
" X X X X X X X X X X X X X X X X X X8 + + > @ O O 2 6 6 # ;     o X  X X X X X X X X X X X X X X",
" X X X X X X X X X X X X X X X X X X X XO O O X X @ 2 4 # ,   o 8 1  X X X X X X X X X X X X X X",
" X X X X X X X X X X X X X X X X X X X X X X X X X@ 2 r p ..u 5 N j. X X X X X X X X X X X X X X",
" X X X X X X X X X X X X X X X X X X X X X X X X X X XJ m.(.z. Xv y. X X X X X X X X X X X X X X",
" X X X X X X X X X X X X X X X X X X X X X X X X X X Xx.I.I.U.Y  X X X X X X X X X X X X X X X X",
" X X X X X X X X X X X X X X X X X X X X X X X X X X X X4.U.). X X X X X X X X X X X X X X X X X",
" X X X X X X X X X X X X X X X X X X X X X X X X X X X X X X X X X X X X X X X X X X X X X X X X",
" X X X X X X X X X X X X X X X X X X X X X X X X X X X X X X X X X X X X X X X X X X X X X X X X"
};
