/* XPM */
static char *result[] = {
/* columns rows colors chars-per-pixel */
"48 48 172 2 ",
"   c #147EFF",
".  c #1682FF",
"X  c #1985FF",
"o  c #1789FF",
"O  c #1A8BFF",
"+  c #1B93FF",
"@  c #1C9BFF",
"#  c #2382FF",
"$  c #2B86FF",
"%  c #248CFF",
"&  c #2B8BFF",
"*  c #2394FF",
"=  c #2A95FF",
"-  c #249AFF",
";  c #2C9CFF",
":  c #3796FF",
">  c #3896FF",
",  c #329CFF",
"<  c #3B9EFF",
"1  c #1EA3FF",
"2  c #1FA9FF",
"3  c #22A4FF",
"4  c #29A4FF",
"5  c #21ABFF",
"6  c #2DAAFF",
"7  c #35A5FF",
"8  c #3BA3FF",
"9  c #36ACFF",
"0  c #3AABFF",
"q  c #23B4FF",
"w  c #2CB2FF",
"e  c #25BBFF",
"r  c #2ABCFF",
"t  c #33B1FF",
"y  c #3AB3FF",
"u  c #33BAFF",
"i  c #3DBBFF",
"p  c #4C95FF",
"a  c #4A9FFF",
"s  c #48A2FF",
"d  c #45AEFF",
"f  c #52A5FE",
"g  c #55ABFF",
"h  c #44B3FF",
"j  c #4AB3FF",
"k  c #43BFFF",
"l  c #4CBCFF",
"z  c #51B3FF",
"x  c #5BB1FF",
"c  c #56BBFF",
"v  c #5ABBFF",
"b  c #62B1FF",
"n  c #66B8FE",
"m  c #26C4FF",
"M  c #2AC3FF",
"N  c #2CCAFF",
"B  c #36C5FF",
"V  c #3DC1FF",
"C  c #32CBFF",
"Z  c #3BCAFF",
"A  c #2ED2FF",
"S  c #34D6FF",
"D  c #3BD4FF",
"F  c #3CDCFF",
"G  c #37E3FF",
"H  c #3FE2FF",
"J  c #43C3FF",
"K  c #4AC6FF",
"L  c #43CAFF",
"P  c #51C2FF",
"I  c #5BC5FF",
"U  c #55CEFF",
"Y  c #44D5FF",
"T  c #4DD2FF",
"R  c #47DAFF",
"E  c #4AD8FF",
"W  c #55DBFF",
"Q  c #64C2FF",
"!  c #6CC3FF",
"~  c #66CAFF",
"^  c #74C5FE",
"/  c #72C9FF",
"(  c #7BCCFF",
")  c #61D4FF",
"_  c #6CD3FF",
"`  c #64DBFF",
"'  c #68DFFF",
"]  c #76D3FF",
"[  c #7CD4FF",
"{  c #72DAFF",
"}  c #46E3FF",
"|  c #45ECFF",
" . c #4DEDFF",
".. c #54E5FF",
"X. c #51EDFF",
"o. c #5CEEFF",
"O. c #45F0FF",
"+. c #4EF2FF",
"@. c #4FF9FF",
"#. c #54F4FF",
"$. c #5AF3FF",
"%. c #52F9FF",
"&. c #5EFAFF",
"*. c #64E1FF",
"=. c #6DE7FF",
"-. c #65ECFF",
";. c #6EE8FF",
":. c #70E6FF",
">. c #7EE5FF",
",. c #75EBFF",
"<. c #63F2FF",
"1. c #6AF0FF",
"2. c #64FCFF",
"3. c #6CFDFF",
"4. c #75F5FF",
"5. c #7BF4FF",
"6. c #73FCFF",
"7. c #7AFFFF",
"8. c #83C5FE",
"9. c #80CAFD",
"0. c #8BCFFF",
"q. c #82D4FF",
"w. c #8CD3FF",
"e. c #84D9FF",
"r. c #88D8FF",
"t. c #97D3FF",
"y. c #9CD4FE",
"u. c #95DDFF",
"i. c #9DDAFF",
"p. c #A4DFFF",
"a. c #A9DCFF",
"s. c #82E5FF",
"d. c #8BEBFF",
"f. c #95E4FF",
"g. c #9BE4FF",
"h. c #93EFFF",
"j. c #9CEBFF",
"k. c #84F2FF",
"l. c #83FCFF",
"z. c #8DFEFF",
"x. c #95F4FF",
"c. c #9DF3FF",
"v. c #92F9FF",
"b. c #9BFDFF",
"n. c #A5E4FF",
"m. c #ABE2FF",
"M. c #A4ECFF",
"N. c #AEEEFF",
"B. c #B7E3FF",
"V. c #BFE4FF",
"C. c #B4EEFF",
"Z. c #BBEFFF",
"A. c #AEF4FF",
"S. c #A4FDFF",
"D. c #AAFFFF",
"F. c #B4F1FF",
"G. c #BBF2FE",
"H. c #B3FDFF",
"J. c #BBFFFF",
"K. c #D3EBFF",
"L. c #C3F0FF",
"P. c #CEF6FF",
"I. c #C4FEFF",
"U. c #CCFEFF",
"Y. c #D4F3FF",
"T. c #D5FEFF",
"R. c #DBFEFF",
"E. c #E4FEFF",
"W. c #ECFFFF",
"Q. c #F3FFFF",
"!. c #FEFFFF",
"~. c None",
/* pixels */
"~.~.~.~.~.~.~.~.~.~.~.~.~.~.~.~.~.~.~.~.~.~.~.~.~.~.~.~.~.~.~.~.~.~.~.~.~.~.~.~.~.~.~.~.~.~.~.~.",
"~.~.~.~.~.~.~.~.~.~.~.~.~.~.~.~.~.~.~.~.~.~.~.~.~.~.~.~.~.~.~.~.~.~.~.~.~.~.~.~.~.~.~.~.~.~.~.~.",
"~.~.~.~.~.~.~.~.~.~.~.~.~.~.~.~.~.~.~.~.~.~.~.~.~.~.~.~.~.~.~.~.~.~.~.~.~.~.~.~.~.~.~.~.~.~.~.~.",
"~.~.~.~.~.~.~.~.~.~.~.~.~.j J ~.~.~.~.~.~.~.~.~.~.~.~.~.~.~.~.~.~.~.~.~.~.~.~.~.~.~.~.~.~.~.~.~.",
"~.~.~.~.~.~.~.~.~.~.~.~.~.~.~.~.~.~.~.~.~.~.~.~.~.~.~.~.~.~.~.~.~.~.~.~.~.~.~.~.~.~.~.~.~.~.~.~.",
"~.~.~.~.~.~.~.~.~.~.~.~.~.~.~.~.~.~.~.~.~.~.~.~.~.~.~.~.~.~.~.~.~.~.~.~.~.~.~.~.~.~.~.~.~.~.~.~.",
"~.~.~.~.~.~.~.~.~.~.~.~.~.~.~.~.~.~.~.~.~.~.~.~.~.~.~.~.~.~.~.~.~.~.~.~.~.~.~.~.~.~.~.~.~.~.~.~.",
"~.~.~.~.~.~.~.~.~.~.~.~.~.~.~.~.B.~.~.~.~.~.~.~.~.~.~.~.; , ~.~.~.~.~.~.~.~.~.~.~.~.~.~.~.~.~.~.",
"~.~.~.~.~.~.~.~.~.~.~.~.~.~.~.~.~.~.~.~.~.~..   .   . = y.w.- + ( b ~.~.~.~.~.~.~.~.~.~.~.~.~.~.",
"~.~.~.~.~.~.~.~.~.~.~.~.~.~.~.~.~.~.~.                  a l 9 y ^ + ~.~.~.~.~.~.~.~.~.~.~.~.~.~.",
"~.~.~.~.~.~.~.~.~.~.~.~.~.~.~.~.~..     X X .   . .     , w.u.P q.@ o ~.~.~.~.~.~.~.~.~.~.~.~.~.",
"~.~.~.~.~.~.~.~.~.~.~.~.~.~.@ @ O . .   . d ; * X X X . * q.u.i 3 + + X ~.~.~.~.^ ~.~.~.~.~.~.~.",
"~.~.~.~.~.~.~.~.~.~.~.~.~.~.@ 1 @ + X % ; t.i.9 + - * X - i s.y 2 V ! X     ~.^ w.~.~.~.~.~.~.~.",
"~.~.~.~.~.~.~.~.~.~.~.~.~.o @ 2 5 5 t - l n.p.~ t E t o + V h.B q 5 3 .       ~.~.~.~.~.~.~.~.~.",
"~.~.~.~.~.~.~.~.~.~.~.~.. o + 2 e m X.{ i._ P s.=.b.L + 3 r M q e 5 O .     . . ~.~.~.~.~.~.D a ",
"~.~.~.~.~.~.~.~.~.~.~.~.. X + 5 N | 6.E.R.n.f.L.W.W.j.v t M e m e 1 X .   . . X ~.~.n ~.~.~.p ~.",
"~.~.~.~.~.~.~.~.~.~.~.. % X + w N | 6.U.!.R.Y.Q.!.!.T.' r C S N r + . = O O o .   = y.9.~.~.~.~.",
"~.~.~.~.~.~.~.~.~.~.    7 7 0 u r %.b.!.!.!.!.!.!.Q.H.E S <.o.N 3 O ; ( _ I X     . , ~.~.~.~.~.",
"~.~.~.~.~.~.~.~.~.~.= = x [ 9.y B z.W.!.!.!.!.!.!.E.3.2.&.+.X.B 3 7 y N.L.m.;       ~.~.~.~.~.~.",
"~.~.n.~.~.~.~.~.~.O l l a.K.L.g.F.E.W.!.!.!.!.!.!.!.J.H.J.U.z.Z ] M.W K k c O       , ^ ~.~.~.~.",
"~.G.P.~.~.~.~.~.~.; / j.f.Z.n.s.W.!.!.!.!.!.!.!.!.!.!.Q.!.!.E.1.x.D.Y 5 + o o .     8 a.h ~.~.~.",
"~.~.L.~.~.~.~.~., h p.K.j.,.;.-.T.!.!.!.!.!.!.!.!.!.!.!.!.!.Q.H.U.b.#.N 2 @ @ @ O X O - ~.~.~.~.",
"~.~.~.~.~.~.~.~.~.7 9.a.M.` -.3.T.!.!.!.!.!.!.!.!.!.!.!.!.!.!.!.!.T.T.4.A e q 2 1 + X O ~.~.~.~.",
"~.~.~.~.~.~.~.~.~.7 0 d ) t k.S.T.!.!.!.!.!.!.!.!.!.!.!.!.!.!.!.R.Q.!.v.A m e q 5 6 + + ~.~.~.~.",
"~.~.~.~.~.~.~.~.. O X ; T >.E.W.!.!.!.!.!.!.!.!.!.!.!.!.!.!.!.!.J.H.5...r q q w U [ 6 O ~.~.~.~.",
"~.~.~.~.~.~.~.~.o o + @ L H.Q.!.Q.Q.!.!.!.!.!.!.!.!.!.!.!.!.!.!.E.v...C @ @ 1 w r.C.v s g ~.~.~.",
"~.~.~.~.~.~.r.Q + @ 5 q R D.R.W.R.!.!.!.!.!.!.!.!.!.!.!.!.!.!.!.!.U.U - o X o o 8 z 0 n t.~.~.~.",
"~.~.~.~.~.~.G.r.6 q e N | <.S.I.E.W.!.!.!.!.!.!.!.!.!.!.!.!.!.!.Q.v.u + X       O . . . ~.~.~.~.",
"~.~.~.~.~.~.U ~.3 q e m S 3.R.W.!.W.!.!.!.!.!.!.!.!.!.!.!.!.Q.T.I.2.} 3 O .           ~.~.~.~.~.",
"~.~.~.~.~.~.~.~.@ 5 e N | D.!.!.U.b.E.!.!.!.!.!.!.!.!.!.!.!.R.l.3.7.%.r + X   .       ~.~.~.~.~.",
"~.~.~.~.~.~.~.~.~.@ 2 q F b.Q.W.5.4.c.W.!.!.!.!.!.!.!.!.!.!.R.` d.I.H.W w - - o X     ~.~.~.~.~.",
"~.~.~.~.~.~.~.~.~.7 @ 4 L :.N.T.A.z.l.b.I.W.R.W.E.Q.!.!.!.!.Q.s.k ~ j.' j.u.I + X . ~.~.~.~.~.~.",
"~.~.~.~.~.~.~.~.0.y.o . O 0 j ` P.U.l.@.6.z.4.,.5.z.R.J.H.Q.!.J.T i ; v p.r.j % $ $ ~.~.~.~.~.~.",
"~.~.~.~.~.~.~.~.~.< X   . ; 3 T S.M.4.+.&.#.S w T  .z.$.<.D.D.2.D 3 + - ; o X $ t 9 ~.~.~.~.~.~.",
"~.~.~.~.~.~.~.~.~.~.~.  X - w B K J Z %.+.H m @ 3 F %.S Z ..5.$.F e 1 @ % f . $ > > ~.~.~.~.~.~.",
"~.~.~.~.~.~.~.~.~.~.~.~.o + @ 1 6 _ ,.} F N q O * M G A ' ( r F F A 2 * & g .   # ~.~.~.~.~.~.~.",
"~.~.~.~.~.~.~.~.~.~.~.~.& O + + + K R S m y @ X X q m e y 7 + q C C q - o . . v 8.~.~.~.~.~.~.~.",
"~.~.~.~.~.~.~.~.~.~.~.~.~.X . . + q N m r [ %   X 1 q @ X . . @ q M e 1 O X , B.] ~.~.~.~.~.~.~.",
"~.~.~.~.~.~.~.~.~.~.~.~.~.~.. . @ q e 5 @ +     . 1 @ o X     o 1 5 w 1 + O - Q ~.~.~.~.~.~.~.~.",
"~.~.~.~.~.~.~.~.~.~.~.~.~.~.~.o @ 5 5 @ o .     . + @ + o .   . O 1 2 1 @ ~.~.~.~.~.~.~.~.~.~.~.",
"~.~.~.~.~.~.~.~.~.~.~.~.~.~.~.~.1 5 1 + .       . . + @ O X     . + @ 1 ~.~.~.~.~.~.~.~.~.~.~.~.",
"~.~.~.~.~.~.~.~.~.~.~.~.~.~.~.~.~.5 1 o           . o O + o .     ~.~.~.~.~.~.~.~.~.~.~.~.~.~.~.",
"~.~.~.~.~.~.~.~.~.~.~.n.~.~.~.~.~.~.~.~.~.~.        . X O o ~.~.~.~.~.~.~.~.~.~.~.~.~.~.~.~.~.~.",
"~.~.~.~.~.~.~.~.~.~.~.~.~.~.~.~.~.~.~.~.~.~.~.~.~.~.~.~.~.~.~.~.~.~.~.~.~.~.~.~.~.~.~.~.~.~.~.~.",
"~.~.~.~.~.~.~.~.~.~.~.~.~.~.~.n.q.~.~.~.~.~.~.~.~.~.~.~.~.~.~.~.~.~.~.~.~.~.~.~.~.~.~.~.~.~.~.~.",
"~.~.~.~.~.~.~.~.~.~.~.~.~.~.~.~.~.~.~.~.~.~.~.~.~.~.~.~.~.~.~.~.~.~.~.~.~.~.~.~.~.~.~.~.~.~.~.~.",
"~.~.~.~.~.~.~.~.~.~.~.~.~.~.~.~.~.~.~.~.~.~.~.~.~.~.~.~.~.~.~.~.~.~.~.~.~.~.~.~.~.~.~.~.~.~.~.~.",
"~.~.~.~.~.~.~.~.~.~.~.~.~.~.~.~.~.~.~.~.~.~.~.~.~.~.~.~.~.~.~.~.~.~.~.~.~.~.~.~.~.~.~.~.~.~.~.~."
};
