/* XPM */
static char *d11dc90c667e4732d005e04a7bd3ce07laBxcFN5G6eJdsjg[] = {
/* columns rows colors chars-per-pixel */
"48 48 163 2 ",
"   c None",
".  c #147EFF",
"X  c #1683FF",
"o  c #1985FF",
"O  c #1789FF",
"+  c #1A8CFF",
"@  c #1B93FF",
"#  c #1D9CFF",
"$  c #228FFF",
"%  c #2593FF",
"&  c #2B95FF",
"*  c #229CFF",
"=  c #2B9BFF",
"-  c #329EFF",
";  c #1EA4FF",
":  c #22A4FF",
">  c #2BA3FF",
",  c #23ABFF",
"<  c #2CABFF",
"1  c #35A4FF",
"2  c #3DA3FF",
"3  c #33AAFF",
"4  c #3AAAFF",
"5  c #24B2FF",
"6  c #2FB0FF",
"7  c #24BCFF",
"8  c #29BBFF",
"9  c #32B3FF",
"0  c #3BB3FF",
"q  c #3CBBFF",
"w  c #479FFE",
"e  c #4AA4FE",
"r  c #44AEFF",
"t  c #4AAFFF",
"y  c #44B5FF",
"u  c #45BBFF",
"i  c #4DBAFF",
"p  c #55B1FF",
"a  c #55BCFF",
"s  c #69B6FF",
"d  c #63BBFE",
"f  c #6BBCFF",
"g  c #76BBFF",
"h  c #25C1FF",
"j  c #2BC4FF",
"k  c #2FC9FF",
"l  c #34C4FF",
"z  c #3BC3FF",
"x  c #33CFFF",
"c  c #3BCEFF",
"v  c #2BD1FF",
"b  c #35D4FF",
"n  c #3CD3FF",
"m  c #35DAFF",
"M  c #38DAFF",
"N  c #3BE2FF",
"B  c #42C5FF",
"V  c #4DC6FF",
"C  c #43CCFF",
"Z  c #4DCCFF",
"A  c #53C5FF",
"S  c #52CBFF",
"D  c #5BCAFF",
"F  c #43D4FF",
"G  c #4BD2FF",
"H  c #47D8FF",
"J  c #4BDBFF",
"K  c #54D4FF",
"L  c #58D5FF",
"P  c #52DDFF",
"I  c #5BDAFF",
"U  c #65C3FF",
"Y  c #6CC4FF",
"T  c #64CAFF",
"R  c #6ECBFF",
"E  c #74C2FF",
"W  c #73CAFF",
"Q  c #64D3FF",
"!  c #6FD2FF",
"~  c #67DEFF",
"^  c #75D4FF",
"/  c #7ED4FF",
"(  c #77D8FF",
")  c #7EDEFF",
"_  c #45E4FF",
"`  c #4BE2FF",
"'  c #46EAFF",
"]  c #4CEBFF",
"[  c #50E3FF",
"{  c #5DE2FF",
"}  c #55E8FF",
"|  c #5BEAFF",
" . c #46F4FF",
".. c #4CF5FF",
"X. c #54F2FF",
"o. c #5EF4FF",
"O. c #52FCFF",
"+. c #5AF9FF",
"@. c #63E3FF",
"#. c #6DEDFF",
"$. c #72E5FF",
"%. c #74EEFF",
"&. c #7DEAFF",
"*. c #61F1FF",
"=. c #68F6FF",
"-. c #60FAFF",
";. c #6AFEFF",
":. c #74F7FF",
">. c #7BF4FF",
",. c #73FFFF",
"<. c #7BFDFF",
"1. c #84C6FF",
"2. c #88C5FF",
"3. c #84CDFF",
"4. c #8FCCFF",
"5. c #83D5FF",
"6. c #84DDFF",
"7. c #8BD9FE",
"8. c #94D7FF",
"9. c #98D4FF",
"0. c #93DDFF",
"q. c #A3DAFF",
"w. c #A9DDFF",
"e. c #83E5FF",
"r. c #8CE3FF",
"t. c #81EBFF",
"y. c #8DE9FF",
"u. c #93E4FF",
"i. c #9CECFF",
"p. c #86F2FF",
"a. c #8FF1FF",
"s. c #83FDFF",
"d. c #8CFCFF",
"f. c #90F0FF",
"g. c #98F3FF",
"h. c #94FDFF",
"j. c #9AFDFF",
"k. c #A6E6FF",
"l. c #A5EEFF",
"z. c #ADEDFF",
"x. c #BBE5FF",
"c. c #B7EFFF",
"v. c #BDEDFF",
"b. c #A3F1FF",
"n. c #ACF7FF",
"m. c #A4FDFF",
"M. c #ACFFFF",
"N. c #B5F6FF",
"B. c #BBF5FF",
"V. c #B4FEFF",
"C. c #BDFDFF",
"Z. c #C4EDFE",
"A. c #CDEDFF",
"S. c #D5ECFF",
"D. c #C8F5FF",
"F. c #C3FEFF",
"G. c #CDFDFF",
"H. c #D4FEFF",
"J. c #DCFEFF",
"K. c #E3FFFF",
"L. c #EBFFFF",
"P. c #F2FFFF",
"I. c #FFFFFF",
/* pixels */
"                                                                                                ",
"                                                                                                ",
"                                                                                                ",
"                                                                                                ",
"                                                                                                ",
"                                                                                                ",
"                                      d 2.                      1.                              ",
"                                        - = a 4 9 : @ O                                         ",
"                                      & r 3.k.W , , * O X . . .                                 ",
"                                - s e . - q.A.6.H C q + o . . . . .                             ",
"                              o = 2.e $ 1 0.e.C n m.b.0 o . . . . . .                           ",
"                            o = 1 3 = O U Z.f.H X.s.p.> X . . . . . X . .                       ",
"                          o 4 w.3.y 8.1 y W &.m.X. .M : X . . . X X . . . .                     ",
"                          . - 6.r.i.v.Q 1 y r.H.j.+.m , X . . o O + X . . X X p 3.              ",
"                      $ o o $ E S.H.n.i.i 3 #.s.<...M 5 O + $ O y 5.+ X . . o t Y               ",
"                Q   * u 3 u q ^ v.D.G.H.^ Z } s.m.,.] [ 4 y < 5 q f $ O = + @ @ @               ",
"              v.k.z L B.j.N.G B S e.C.H.d.[ { F.P.H.M.M.k.I *.J 5 * O 1 R * # # @               ",
"              T S # Z g.j.K.d.J J G >.s.K.C.z.P.I.I.H.V.B.V.L.V.y.> * 8 l , ; ; @               ",
"      v.Z.      < # , c [ h.s.C.F.j.j.M.P.I.I.I.I.I.I.F.H.L.H.C.j.) t.=.b 5 5 ; @ +             ",
"        7.        O # , ` s.,.P.I.P.J.J.P.I.I.I.I.I.I.P.P.I.P.K.K.P.P.M.N k 7 ; # O             ",
"                  o @ , &.L.V.L.I.I.I.I.I.I.I.I.I.I.I.I.I.I.I.I.I.I.J.;.N x 5 # O X             ",
"                  o = 3 @.H.h.L.I.I.I.I.I.I.I.I.I.I.I.I.I.I.I.I.I.I.P.C.o.y.A o X .             ",
"                  % - u l.H.F.G.I.I.I.I.I.I.I.I.I.I.I.I.I.I.I.I.I.I.I.G.P A & o . .             ",
"                - / 8.7.^ q.&.m.L.I.I.I.I.I.I.I.I.I.I.I.I.I.I.I.I.I.H.y.3 + O O X X X           ",
"                d x.u.T 0 K z I V.I.I.I.I.I.I.I.I.I.I.I.I.I.I.I.I.P.V.@., @ @ + X o o           ",
"                % y > < , l z { h.I.I.I.I.I.I.I.I.I.I.I.I.I.I.I.I.I.P.G.F : # + X X X           ",
"                  + + # ; , < t.K.I.I.I.I.I.I.I.I.I.I.I.I.I.I.P.L.K.I.K.#.6 @ O X .             ",
"                  o O + @ * C F.H.P.I.I.I.I.I.I.I.I.I.I.I.P.I.L.P.C.J.F.@.: o X . .             ",
"                  & % p a 5 M +.d.M.L.I.I.I.I.I.I.I.I.I.P.J.F.>.n.>.,. .' j # O . X             ",
"                  f Y u V M X.] ;.,.K.I.I.I.I.I.I.I.I.I.L.K.K.H q j _ v v h 5 @ X .             ",
"                  D V c } :.d.} } o.J.I.I.I.I.I.I.I.I.P.j.C.V.C # ; ; 5 h h 7 ; +               ",
"                  B a.{ { K.L.%.q J &.c.P.I.I.I.I.I.I.L.J.M.O.j @ O + # 5 l 5 ; +               ",
"                  I V.I @.B.B.S 3 - y $.P.I.I.I.I.I.I.J.H.V.+.M 6 $ o O # ; ; ; @               ",
"                  q l q = A r & 1.2.: ` M.L.F.P.I.I.H.K.i.~ M c ^ p o . X O @ @ d U             ",
"                      0 4.U & X w 2 ; M ` @.} z.J.M.F.L.r.P &.Z 7.g $ . . X O                   ",
"                      4 w.E o . X O # ; # > & 0 >.<.h.C.T > r.V = % o . . .                     ",
"                        4 % o . . O # # O X o @ c _ ' ` C + + @ + # O X .                       ",
"                              . . O @ @ O X X + 5 m M 5 : O . . + + O X                         ",
"                                X X + @ o . . @ 5 k j # O o . . o X X                           ",
"                                    + + o . X + , 7 5 @ o o g % X o                             ",
"                                        . . X + ; , ; @ O X X                                   ",
"                                                ; , ; @                                         ",
"                                                                                                ",
"                                                                                                ",
"                                                                                                ",
"                                                                                                ",
"                                                                                                ",
"                                                                                                "
};
