/* XPM */
static char *_de6d9d612394553a7c9c06134b88d23r3vER5jUxtETBZqM[] = {
/* columns rows colors chars-per-pixel */
"48 48 179 2 ",
"   c None",
".  c #147EFF",
"X  c #1683FF",
"o  c #1985FF",
"O  c #178AFF",
"+  c #1B8BFF",
"@  c #1B94FF",
"#  c #1D9BFF",
"$  c #238CFF",
"%  c #358DFF",
"&  c #3B8BFF",
"*  c #2394FF",
"=  c #2A94FF",
"-  c #229BFF",
";  c #2A9AFF",
":  c #339CFF",
">  c #1EA3FF",
",  c #23A4FF",
"<  c #2CA5FF",
"1  c #22ABFF",
"2  c #2CACFF",
"3  c #33A3FF",
"4  c #3DA5FF",
"5  c #35ABFF",
"6  c #3CABFF",
"7  c #23B2FF",
"8  c #2CB2FF",
"9  c #25BBFF",
"0  c #29BCFF",
"q  c #32B3FF",
"w  c #3DB2FF",
"e  c #34B9FF",
"r  c #3ABBFF",
"t  c #42A6FF",
"y  c #43ADFF",
"u  c #4CABFE",
"i  c #54ABFF",
"p  c #44B4FF",
"a  c #4EB1FF",
"s  c #43BDFF",
"d  c #4ABBFF",
"f  c #50B4FF",
"g  c #54BBFF",
"h  c #5BBDFF",
"j  c #60AEFF",
"k  c #66B7FF",
"l  c #69B4FF",
"z  c #63BBFF",
"x  c #6CBAFF",
"c  c #27C3FF",
"v  c #2BC4FF",
"b  c #2BCCFF",
"n  c #32C3FF",
"m  c #3CC4FF",
"M  c #34CEFF",
"N  c #3FC8FF",
"B  c #2DD2FF",
"V  c #35D2FF",
"C  c #3FD2FF",
"Z  c #36DAFF",
"A  c #3ADFFF",
"S  c #35E3FF",
"D  c #3EE1FF",
"F  c #3FECFF",
"G  c #43C4FF",
"H  c #4CC2FF",
"J  c #44CBFF",
"K  c #4BCCFF",
"L  c #54C2FF",
"P  c #5DC4FF",
"I  c #52CAFF",
"U  c #5BCCFF",
"Y  c #43D3FF",
"T  c #4CD3FF",
"R  c #42DBFF",
"E  c #4BDAFF",
"W  c #54D5FF",
"Q  c #55DCFF",
"!  c #5BD9FF",
"~  c #62C2FF",
"^  c #62CCFF",
"/  c #6BCDFF",
"(  c #72C6FE",
")  c #7BC4FF",
"_  c #7BCFFF",
"`  c #65D5FF",
"'  c #64DBFF",
"]  c #6BDBFF",
"[  c #76D5FF",
"{  c #7BD2FF",
"}  c #7BD9FF",
"|  c #47E1FF",
" . c #4EE1FF",
".. c #45EBFF",
"X. c #4AEAFF",
"o. c #52E6FF",
"O. c #5EE6FF",
"+. c #55EEFF",
"@. c #5AEBFF",
"#. c #4FF7FF",
"$. c #54F1FF",
"%. c #5AF2FF",
"&. c #56FDFF",
"*. c #5AFDFF",
"=. c #65E2FF",
"-. c #6AE4FF",
";. c #67EDFF",
":. c #6AEAFF",
">. c #77E1FF",
",. c #7BE3FF",
"<. c #77EAFF",
"1. c #7BECFF",
"2. c #62F0FF",
"3. c #6CF4FF",
"4. c #63FCFF",
"5. c #6CFDFF",
"6. c #72F2FF",
"7. c #7BF7FF",
"8. c #73FBFF",
"9. c #7EFDFF",
"0. c #85C3FF",
"q. c #8FC7FF",
"w. c #85CDFF",
"e. c #8FCBFF",
"r. c #93CDFE",
"t. c #82DEFF",
"y. c #8FDDFF",
"u. c #93D5FF",
"i. c #9BD6FE",
"p. c #94D9FF",
"a. c #9DDDFF",
"s. c #A2D2FE",
"d. c #A1DDFF",
"f. c #AEDEFF",
"g. c #81E2FF",
"h. c #8CE3FF",
"j. c #83EFFF",
"k. c #8BE9FF",
"l. c #9CE2FF",
"z. c #95EBFF",
"x. c #9BE9FF",
"c. c #83F3FF",
"v. c #8CF3FF",
"b. c #83FCFF",
"n. c #8DFDFF",
"m. c #91F5FF",
"M. c #9BF3FF",
"N. c #93FEFF",
"B. c #9CFFFF",
"V. c #A4E4FF",
"C. c #ABE3FF",
"Z. c #ACE8FF",
"A. c #B8E5FF",
"S. c #B6EBFF",
"D. c #BEEDFF",
"F. c #A3F2FF",
"G. c #AFF3FF",
"H. c #A4FEFF",
"J. c #ABFFFF",
"K. c #B5F5FF",
"L. c #BBF6FF",
"P. c #B3FEFF",
"I. c #BBFEFF",
"U. c #CAE6FF",
"Y. c #D2EDFF",
"T. c #DBECFF",
"R. c #C3F6FF",
"E. c #CEF4FF",
"W. c #C4FEFF",
"Q. c #CCFEFF",
"!. c #D3F5FF",
"~. c #D9F4FF",
"^. c #D3FFFF",
"/. c #DBFEFF",
"(. c #E0F5FF",
"). c #E4FEFF",
"_. c #ECFFFF",
"`. c #F4FFFF",
"'. c #FEFFFF",
/* pixels */
"                                                                                                ",
"                                                                                                ",
"                                                                                                ",
"                                        i.                                                      ",
"                                                                                                ",
"                                      i.                                                        ",
"                                      z                                                         ",
"                                        X X : $ . X X . . .                                     ",
"                                  # @ O o * 0.j o + . . . . . . .                               ",
"                              - # , > > + + a w 6 * o . . . . . X O X                           ",
"                        s.t @ L / 8 > 7 > @ * ~ w.4 * o o . . . X O @ > r                       ",
"                        u : 3 a.K.W 0 9 9 1 6 r.U.u.y * . . . X @ # > > p 4                     ",
"                        o . X h M.M.M 9 9 0 q U p.g 5 < o $ + # > 7 7 > @ X                     ",
"                        . . o + P ,.V c v v Q K m T Y G w u.G 0 v v 9 > O X .                   ",
"              w.x     o . . X o > 9 b B M V n.v.<.;.3.M.a.m.+.A <.:.c , * o o o                 ",
"              z i & $ + X + o + @ > Z F +.N./.'.`.Q.P./.K.b.4...X.| 0 * p ; + : +               ",
"                u H t 3 3 r - * 3 q 8...9.).'.'.'.'.'.).).).).b...D 8 ; x w.g u +               ",
"                ~ E.} ` S.M.E K g.Z.^.4.n._.'.'.'.'.'.'.'.'.'.H.8.3.G 6 r.T.f.u = o             ",
"                4 C.Y.z.Q.Q.;.8.Q._.`._._.'.'.'.'.'.'.'.'.'.'.).W.K.^ ` Z.U.p.g 5 *             ",
"                5 { d.t.l.!.x.1.G._.'.'.`.'.'.'.'.'.'.'.'.'.'.'._.~.w.d P } / ; * X             ",
"              < 5 G Y I O.M.` T 8.J._.I.Q.'.'.'.'.'.'.'.'.'._./.R.K.:.m q ,.K.~ : .             ",
"              ^ h.J ` :.I.J.$.5.5.P.^.B.I.'.'.'.'.'.'.'.'.'.Q.)./.P.*.X.| R._.d.3 o .           ",
"              s U e ,.W.`.P.J.Q._.'.'.^.`.'.'.'.'.'.'.'.'.'._./.'./.n.4.<.x.(.d.y ; o           ",
"              > 1 # 8 1._.Q._.'.'.'.'.'.'.'.'.'.'.'.'.'.'.'.'.'.'./.8.@.I ] s s ; X .           ",
"              @ + X - P R.J.I.).'.'.'.'.'.'.'.'.'.'.'.'.'.'.'.'.^.b.b.K.V.G 8 2 w + +           ",
"                . o o * I ` -.).'.'.'.'.'.'.'.'.'.'.'.'.'.'.'.`.J.&.7.^.Q.<.C ' x.d #           ",
"                . . . + : k U K.'.'.'.'.'.'.'.'.'.'.'.'.'.'.'.'.W.N.N.H.c.+.R 3.F.K -           ",
"                . . . o u q.h z._.'.'.'.'.'.'.'.'.'.'.'.'.'.'.`./.H.I.P.7.Z c.v.E 1 @           ",
"                . . . o * 6 m c._.'.'.'.'.'.'.'.'.'.'.'.'.'.'.'.`.H.I.Q.2.M :.<.v > @           ",
"                  . . X + 2 Y I.'.'.'.'.'.'.'.`.'.`.'.'.'.'.'.'.^.c.J ` G 2 8 1 , #             ",
"                  . X X # 2 ! ).'.'.'.'.'.'.'.'.).B.P._.'./.W.Q.8.C 8 < O X X O + X             ",
"                  . . O @ # s l.R.).'.'.'.'.'.'.'.I.b.b.H.B.W.9.&.V 1 @ X X X . .               ",
"                    o = * * + w s x.Q./.'.).`.'.`.J.5.o.W 3.I.*.S b 1 # @ O X X X               ",
"                    % m = = p 5 d b.+.5.H.I.-.z.).8.4.r 2 n D S B 7 # @ @ O X X                 ",
"                    $ % $ f D.D.F.%.X.X.X.O.2 e 6.W.N.r , 8 v V B > + O O X X X                 ",
"                /.p.    o h R.`.).n.$.%.v < ; G H.^.Q._ H W Q v b > @ X X X X                   ",
"                V.(     + 6 ,.W.P.+.o.I.Q e < =.j.^.R.L = w.k.M c 7 # X . .                     ",
"                          ) r Y Y o.Y v.^.d $ >././.k.K ; y n 9 9 > # X .                       ",
"                          4 2 8 1 , 2 y.A.f g E.'.~.I s * + # 1 7 > @ X                         ",
"                              > # @ * a h ; 6 S._.g.L l x + X # > > O                           ",
"                                    + X + $ + H ] < 3 i i X O @ # _                             ",
"                                          X o @ + + X $ o                                       ",
"                                                                                                ",
"                                                                                                ",
"                                                                                                ",
"                                                                                                ",
"                                                                                                ",
"                                                                                                "
};
