/* XPM */
static char *_d1aad8a215543bf8cb16b19ad359a5ekc8DhKwenjpl2keO[] = {
/* columns rows colors chars-per-pixel */
"48 48 190 2 ",
"   c None",
".  c #147EFF",
"X  c #1682FF",
"o  c #1985FF",
"O  c #1789FF",
"+  c #1A8CFF",
"@  c #1B93FF",
"#  c #1C9BFF",
"$  c #218DFF",
"%  c #2493FF",
"&  c #2B95FF",
"*  c #239DFF",
"=  c #2B9BFF",
"-  c #3897FF",
";  c #369CFE",
":  c #1EA3FF",
">  c #1EAAFF",
",  c #23A3FF",
"<  c #2BA3FF",
"1  c #22ADFF",
"2  c #2BA9FF",
"3  c #33A3FF",
"4  c #3CA6FF",
"5  c #34ABFF",
"6  c #3AABFF",
"7  c #24B3FF",
"8  c #2CB2FF",
"9  c #25BBFF",
"0  c #2DBDFF",
"q  c #32B5FF",
"w  c #3CB3FF",
"e  c #34BCFF",
"r  c #3BBBFF",
"t  c #41A5FF",
"y  c #49A4FF",
"u  c #43ACFF",
"i  c #53ADFF",
"p  c #5CADFF",
"a  c #42B3FF",
"s  c #4CB5FF",
"d  c #43BAFF",
"f  c #4ABAFF",
"g  c #52B0FF",
"h  c #59B3FF",
"j  c #5BBCFF",
"k  c #6AB3FF",
"l  c #62BBFF",
"z  c #6CBBFF",
"x  c #72BEFF",
"c  c #7BBEFE",
"v  c #25C1FF",
"b  c #2BC3FF",
"n  c #2BC9FF",
"m  c #32C4FF",
"M  c #3DC0FF",
"N  c #3CCDFF",
"B  c #35D3FF",
"V  c #3AD1FF",
"C  c #31DBFF",
"Z  c #3ADAFF",
"A  c #3BE2FF",
"S  c #3CEBFF",
"D  c #40C1FF",
"F  c #4CC5FF",
"G  c #44CBFF",
"H  c #4BCBFF",
"J  c #5FC6FF",
"K  c #54CAFF",
"L  c #5CCCFF",
"P  c #43D3FF",
"I  c #44DBFF",
"U  c #4CDBFF",
"Y  c #55D5FF",
"T  c #5CD3FF",
"R  c #53DBFF",
"E  c #5BDCFF",
"W  c #67C3FF",
"Q  c #6AC2FF",
"!  c #63CBFF",
"~  c #6CCAFF",
"^  c #74C3FF",
"/  c #7DC2FE",
"(  c #74C9FF",
")  c #7FC9FE",
"_  c #63D1FF",
"`  c #6DD5FF",
"'  c #64D8FF",
"]  c #6DD9FF",
"[  c #74D3FF",
"{  c #7BD3FF",
"}  c #7CDAFF",
"|  c #44E2FF",
" . c #4AE4FF",
".. c #4AEBFF",
"X. c #53E3FF",
"o. c #5CE6FF",
"O. c #52EDFF",
"+. c #5BEFFF",
"@. c #40F0FF",
"#. c #48F6FF",
"$. c #54F5FF",
"%. c #5BF4FF",
"&. c #55FBFF",
"*. c #5AFCFF",
"=. c #64E5FF",
"-. c #6EE4FF",
";. c #62EDFF",
":. c #69EBFF",
">. c #72E3FF",
",. c #7CE1FF",
"<. c #77EEFF",
"1. c #7CECFF",
"2. c #62F5FF",
"3. c #6CF3FF",
"4. c #66FEFF",
"5. c #6AFEFF",
"6. c #7DF2FF",
"7. c #74FCFF",
"8. c #7DFFFF",
"9. c #82C3FF",
"0. c #83CAFF",
"q. c #8CCBFF",
"w. c #93CCFF",
"e. c #98CEFF",
"r. c #80D3FF",
"t. c #8CD5FF",
"y. c #85DBFF",
"u. c #8FDBFF",
"i. c #90D6FF",
"p. c #9CD3FF",
"a. c #95DFFF",
"s. c #99DBFF",
"d. c #A3DBFE",
"f. c #ADDAFE",
"g. c #B2DFFF",
"h. c #82E4FF",
"j. c #8EE1FF",
"k. c #8BEFFF",
"l. c #90E6FF",
"z. c #9BE2FF",
"x. c #94EDFF",
"c. c #9AEBFF",
"v. c #85F4FF",
"b. c #84FBFF",
"n. c #8CFDFF",
"m. c #92F5FF",
"M. c #9CF4FF",
"N. c #93FCFF",
"B. c #9BFDFF",
"V. c #A1E3FF",
"C. c #AAE1FF",
"Z. c #A1EAFF",
"A. c #AEEBFF",
"S. c #B1E7FF",
"D. c #BAE5FF",
"F. c #B4ECFF",
"G. c #BAEDFF",
"H. c #A3F6FF",
"J. c #ACF3FF",
"K. c #A3FEFF",
"L. c #ABFFFF",
"P. c #B5F5FF",
"I. c #BBF4FF",
"U. c #B3FDFF",
"Y. c #BFFCFF",
"T. c #C2E4FE",
"R. c #C0EAFF",
"E. c #CBE9FF",
"W. c #C8EFFF",
"Q. c #C3F2FF",
"!. c #C8F4FF",
"~. c #C4FFFF",
"^. c #C3FEFF",
"/. c #C9FFFF",
"(. c #CBFEFF",
"). c #DAF6FF",
"_. c #D4FEFF",
"`. c #DAFFFF",
"'. c #DBFDFF",
"]. c #EEF7FF",
"[. c #E4FDFF",
"{. c #EAFFFF",
"}. c #EDFFFF",
"|. c #EBFEFF",
" X c #F3FFFF",
".X c #F4FFFF",
"XX c #F9FFFF",
"oX c #FFFFFF",
"OX c #FDFFFF",
"+X c #FEFFFF",
/* pixels */
"                                                                                                ",
"                                                                                                ",
"                                                                                                ",
"                                                                                                ",
"                                              l ^                                               ",
"                                            o x q.< @                                           ",
"                          /           . . . . = = @ @ @ @ + +                                   ",
"                                X X X X o % $ $ + * @ # # # + < o                               ",
"                              X X X + + & 6 u.l a r : 1 7 , < a % % o                           ",
"                          O X X X X & 0.[ _ E.!.l.Y m m I -.` t.j 3 & X                         ",
"                        @ + O X X X = s.Z.5 } !.'.K.%.Z G v.F.E.z f e.& X                       ",
"                      # : : @ + X X # d r w w a.}.~.m.V B =.Z.g.0.f 0.% . .                     ",
"                    @ : : : : : @ O @ , : # 5 ,.}.|.K.%.I P K u 3 ; = s $ o .                   ",
"      r             + @ , 2 e 7 1 : + @ : 2 * z.|.oX/.B.Z N r % + + s f.h o .     z d.          ",
"    / H           . X o 3 a.} 0 n m 8 8 5 r q X.K..XXX^.%.X.F < @ * f q.i % . . & 0.T.W         ",
"      f.      W i + . . + Q ! U :.| 3.I.P.X.X.n.U.oXoX[.n.b.v.H K 2 + 4 ; + . . X 6 s           ",
"              d.d.o . . o $ H J.`.5.N.XXoXU.N./..XoXoX}.~.}.|.U.e O o k q.= X X X               ",
"              u 4 o . . . + s I.L.B.U.oXoXXX[..XoXoXoXoXoXoXoX_.R % % z i.5 @ + + +             ",
"              o . . + o . o = ! M.|.~..XXXoXoXoXoXoXoXoXoX[. XM.D , < q e 1 , : # #             ",
"              . . $ ; o o o $ 6 c.'.XXoXoXoXoXoXoXoXoXoX}.L.B.P 2 0 6. .b b 9 1 > : #           ",
"            & - 4 0.y.6 @ % < w ] Z.|.XXoXoXoXoXoXoXoXoX}.b.N.I I | 4.2.;.B b 7 > # # 6 D.t.    ",
"          t 9.% K ).'.{ H N m x.P.M. XoXoXoXoXoXoXoXoXoXoXXX[.^.^.B.7.N.N.B 9 > @ O X   / J     ",
"            3 = [ [.'.P.H =.| ^.XXoXoXoXoXoXoXoXoXoXoXoXoXoXoXoXoX.Xm. .P b : @ O X X           ",
"          y e.3 w } u.h.F.I.n.'..XXXoXoXoXoXoXoXoXoXoXoXoXoXoX.XoX.XM.E 8 * o o % % .           ",
"            t % + % s w i.I.b.(.~.}.oXoXoXoXoXoXoXoXoXoXoXoXXXK.A.I.} * + X o & z i X           ",
"              . . + 6 w s ! Y J.|..XoXoXoXoXoXoXoXoXoXoXoXoX.XL.N.G d 5 . . . & w.c =           ",
"              . . o j S.E.T R ^.oXoXoXoXoXoXoXoXoXoXoXoXoXoXoX/.B.O.7 2 + X . % - ;             ",
"              . o = [ _.U.3.M.~. XoXoXoXoXoXoXoXoXoXoXoXoXoX XK.&.#.B 7 : + X o . o             ",
"              X @ : H 6.o.%.n.7.^.XXoXoXoXoXoXoXoXoXoXoXoX}.L.7.A ..B b > # = p $ .             ",
"              @ @ 1 0 N M.7.4.L./. X[.XXoXoXoXoXoXoXoXoX XL.4.*...] E q , , < q.% .             ",
"              # : : 8 U ^.M.6.[.[.!.).|.XX.XoXoXoX}.`.XXoXL.%.#.b.I.C.G.6 o X % X               ",
"                @ @ * h.M.R G [ ,.k.U.K.U.oXoXoXoX/.b._._.+.$.$.n.'._.M.q % o X .               ",
"                @ + ! z.V.H H 3 H :. .7.8.[.'.[.L.K.5...E =.b.O.$.M.~.`.k.5 O X                 ",
"                  + q.! ] z.Z.Z.<.I e P 3.' o.3.5.*.@.v q j.H.I B n.J.^.E , + .                 ",
"                    3 L D.].]. XP.H e e M 2 m V $.S C v 1 5 2 0 V | I o.G < +                   ",
"                      w S.[.].(.P.y.6 = ! { >.m A C b 7 : # + @ u.b b m 1 , #                   ",
"            w         % _ ] >.1.!.f.a 5 d. XY. .C n 7 > # @ X X @ : 7 7 : #                     ",
"                        = % < T ~ W 6 a V.'.K.L. .9 @ @ @ + O . . + # : #                       ",
"                            $ = $ = o $ F K n.H.U 1 @ X O O O O . X X                           ",
"                    z.}         . o . o % # N N N r = X O O O O .                               ",
"                    '.!.            X X + # : 7 L A.z = X X X                                   ",
"                                        @ @ # 5 ~ D.l o                                         ",
"                                                = F 6                                           ",
"                                  )           ( z.                                              ",
"                                  d.          x.G.                                              ",
"                                              c.                                                ",
"                                                                                                ",
"                                                                                                "
};
