/* XPM */
static char *_8d08730936c4c85da8b3fc6a0c13af63njX9qiej1z2Q1Ou[] = {
/* columns rows colors chars-per-pixel */
"48 48 184 2 ",
"   c None",
".  c #147EFF",
"X  c #1683FF",
"o  c #1985FF",
"O  c #1789FF",
"+  c #1A8CFF",
"@  c #1B93FF",
"#  c #1C9BFF",
"$  c #218CFF",
"%  c #2493FF",
"&  c #2995FF",
"*  c #239BFF",
"=  c #2B9BFF",
"-  c #329DFF",
";  c #3E9FFF",
":  c #1DA2FF",
">  c #1FA9FF",
",  c #23A4FF",
"<  c #2BA3FF",
"1  c #22ABFF",
"2  c #2AACFF",
"3  c #33A5FF",
"4  c #3BA1FF",
"5  c #33ABFF",
"6  c #3BADFF",
"7  c #24B2FF",
"8  c #2DB4FF",
"9  c #25B9FF",
"0  c #2BBDFF",
"q  c #32B5FF",
"w  c #3BB1FF",
"e  c #35BEFF",
"r  c #3CBBFF",
"t  c #41A7FF",
"y  c #44ACFF",
"u  c #4DACFE",
"i  c #53AEFF",
"p  c #41B5FF",
"a  c #4CB5FF",
"s  c #44BBFF",
"d  c #4BBBFF",
"f  c #56B6FF",
"g  c #5AB2FF",
"h  c #54BDFF",
"j  c #66B2FF",
"k  c #66BBFF",
"l  c #6BBFFF",
"z  c #23C5FF",
"x  c #2EC4FF",
"c  c #2FCAFF",
"v  c #33C3FF",
"b  c #3BC5FF",
"n  c #35CCFF",
"m  c #3CCBFF",
"M  c #37D4FF",
"N  c #3ED5FF",
"B  c #36DAFF",
"V  c #3EDAFF",
"C  c #35E5FF",
"Z  c #42C0FF",
"A  c #43CCFF",
"S  c #4CCBFF",
"D  c #57C3FF",
"F  c #5FC4FF",
"G  c #53CDFF",
"H  c #5BCEFF",
"J  c #44D4FF",
"K  c #4ED1FF",
"L  c #43DBFF",
"P  c #4AD9FF",
"I  c #54D4FF",
"U  c #5DD5FF",
"Y  c #5ADFFF",
"T  c #64C5FF",
"R  c #6AC1FF",
"E  c #6DCAFF",
"W  c #73C1FF",
"Q  c #7DC3FF",
"!  c #73CBFF",
"~  c #7DCFFF",
"^  c #65D5FF",
"/  c #6DD4FF",
"(  c #65D8FF",
")  c #6ED9FF",
"_  c #77D6FF",
"`  c #7ED7FF",
"'  c #7BDAFF",
"]  c #44E3FF",
"[  c #4BE2FF",
"{  c #54E4FF",
"}  c #5BE4FF",
"|  c #54ECFF",
" . c #5DEEFF",
".. c #4EF0FF",
"X. c #4FF8FF",
"o. c #55F5FF",
"O. c #5EF0FF",
"+. c #5CFBFF",
"@. c #64E5FF",
"#. c #6AEBFF",
"$. c #73E2FF",
"%. c #7DE6FF",
"&. c #75EBFF",
"*. c #7EE9FF",
"=. c #62F2FF",
"-. c #6BF3FF",
";. c #66FAFF",
":. c #6BFCFF",
">. c #75F5FF",
",. c #7BF2FF",
"<. c #74FBFF",
"1. c #7DFCFF",
"2. c #83C4FE",
"3. c #83CCFE",
"4. c #8CCAFF",
"5. c #96CFFE",
"6. c #82D4FF",
"7. c #89D5FF",
"8. c #84DCFF",
"9. c #88DFFF",
"0. c #93D6FF",
"q. c #9BD3FE",
"w. c #94DAFF",
"e. c #A1D6FF",
"r. c #ACD7FD",
"t. c #A4DCFF",
"y. c #ACDBFE",
"u. c #B5DCFE",
"i. c #82E8FF",
"p. c #99E3FF",
"a. c #93EEFF",
"s. c #81F5FF",
"d. c #8DF3FF",
"f. c #81FCFF",
"g. c #8CFDFF",
"h. c #93F5FF",
"j. c #9CF5FF",
"k. c #94FFFF",
"l. c #94FDFF",
"z. c #9CFCFF",
"x. c #A8E0FE",
"c. c #AAE2FF",
"v. c #A0EFFF",
"b. c #A8EFFF",
"n. c #B8E6FF",
"m. c #BDE6FF",
"M. c #B2ECFF",
"N. c #B9EEFF",
"B. c #A7F7FF",
"V. c #A3F5FF",
"C. c #ADF4FF",
"Z. c #A5FFFF",
"A. c #A5FEFF",
"S. c #ABFFFF",
"D. c #B3F4FF",
"F. c #BDF4FF",
"G. c #B0FFFF",
"H. c #B4FFFF",
"J. c #B1FDFF",
"K. c #B8F9FF",
"L. c #BAFEFF",
"P. c #BCFDFF",
"I. c #C4F3FF",
"U. c #C8F6FF",
"Y. c #C1FBFF",
"T. c #C6FFFF",
"R. c #C4FEFF",
"E. c #C3FEFF",
"W. c #CBFEFF",
"Q. c #D5FFFF",
"!. c #D4FFFF",
"~. c #DFF8FF",
"^. c #DBFEFF",
"/. c #E1F7FF",
"(. c #E4FFFF",
"). c #EAFFFF",
"_. c #EBFFFF",
"`. c #F0FDFF",
"'. c #F3FFFF",
"]. c #F8FFFF",
"[. c #FBFFFF",
"{. c #FDFFFF",
"}. c white",
"|. c #FFFFFF",
/* pixels */
"                                                                                                ",
"                                                                                                ",
"                                              t.                                                ",
"                                              3.                                                ",
"                                    2.k         s w.f                 q.c.                      ",
"                                      &   + @ # a n.E o o O           0.y.                      ",
"                                    . X + @ @ # @ y t u + . X .       6                         ",
"                                . . . . O @ # # # < 4.q.- O X X . .                             ",
"                              . . . . . X O @ # # * y i $ O O X . . . .                         ",
"                          . . X . X o . . X @ # : # & & & O O X . . o X X +       w.            ",
"                        . . . X - & 4 X . X @ # 1 > 6 l 6 # o O . . % = o + @                   ",
"                      . . . . o u r.R = X X @ , x v S ! 5 # @ O + & 3 T w w # @                 ",
"                      X X o o & g r.R 4 o o # 7 M -.a.H , , * o O < 6.F.8.2 # @ @               ",
"                    . $ = 5 + + < 3 6.e.$ o # 0 o.J._.U.Z A ) & + 8 h.T.d.b 1 # +               ",
"                  . . + T w.a < * * d h 6 + , L :.H.{.].K.D.~._ q m O.l.P n 7 # O               ",
"                  . X - Q m.T 5 3 : 2 < s w J f.k.].{.{.{.{.].P.L c d.[ v 7 : @ X O             ",
"                . . . X - f D r.l 1 P v.8.i.C.T.).{.{.{.{.{.{.Q.=.n N 8 7 > # O X .             ",
"                X X X . $ + = ! y , [ A.L./.`.{.{.{.{.{.{.{.W.;.N n 0 7 1 # O X X . .           ",
"              @ + + + + o O o o q &.1.!.).{.{.{.{.{.{.{.{.{.Q.<.| J 0 1 # + X X . . .           ",
"              % # # , # # @ @ o D _.Q._.{.{.{.{.{.{.{.{.{.{._.z.<.] 9 : + O X X . . .           ",
"      w.  a < @ # , e e 2 1 2 8 I Y.'.{.{.{.{.{.{.{.{.{.{.{.).k.;.B 9 # + O O X X . . .         ",
"        T c.d @ @ r b.&.J n N [ o.1.W.{.{.{.{.{.{.{.{.{.{.{.].W.+.C z x # # & & + X . .         ",
"          R 6 + + s p._ v =.f.-.=.1.Q.{.{.{.{.{.{.{.{.{.{.{.{.!.o.X.g.&.v 8 ! ! $ . . .         ",
"              X t 0.r * e i.!.A.f.S.T.).{.{.{.{.{.{.{.{.{.{.{.'.Z.<.K.j.v 5 e.5.- o . .         ",
"              X 4 2.= + , U D.D.^.P.S.!.].{.{.{.{.{.{.{.{.{.{.(.f.A S 5 % % ; y X . . .         ",
"              X . o X X o & d M.'.'.).D.{.{.{.{.{.{.{.{.{.{.{.{.z.Y s = @ @ O + X . . .         ",
"              . . . . . + 6 ( P.'.{.{.{.{.{.{.{.{.{.{.{.{.{.{.{.Q.g.@.b 7 > # @ o X . .         ",
"              X . . . O + / ^.]._._.'.{.{.{.{.{.{.{.{.{.{.{.{.'.S.k.A.} [ c 7 > # + O O         ",
"            j $ X X O O % q $.V.h.k.z.'.{.{.{.{.{.{.{.{.{.].W.Y.,.#.W.Y.1.L v 9 1 # @           ",
"            e.& X X O O X + < e 8 } g.^.{.{.{.{.{.{.{.{.].H.=.d.I { V.Q.,.V v z 7 : #           ",
"                X X O O X X + w w G I.].{.{.{.{.{.{.{.{._.z.H.W.` r G ^ K 0 9 9 1 > :           ",
"                . . X . . . o 5 ` j.'.{.{.{.{.{.{.{.].(.J.k.L.Y.*.6 o @ < # # : : # #           ",
"                  . . . o o = ^ N.^.'.'.).).'.{.{.{.'.J.g...;.<.n < + X X o % & $ o             ",
"              2.4.o . + i 6 r %.^.).A.:.+.1.J.j.!.^._.).z.] z.z.9 # X . . o g l t               ",
"                i   . o t.8.U V.).!.z.C B M ;.>.@.S.).).*.r ^ x 7 : o X . $ 3.u.a               ",
"                      + 3 5 b D.^.W.<.[ 9 9 { &.8.>.z.:.} , o @ : : + X . $ = i                 ",
"                        @ # b s.l.@.v q 2 m I D.I.i. .L 0 7 O X O # @ O . . .                   ",
"                          # b v K q % + 2 9.^ w.c.) P v 7 1 # O O Q i O . .     q.e.            ",
"                        E < & # * = X O 3 p.D h p G 0 9 > > : + O 4 % o           3.            ",
"                  N.M.$.6.    O O o . O + = = % + 5 9 7 > : # O X . .                           ",
"                  a.I.'             . X X o o O X @ 2 7 > # @ o O                               ",
"                                        o * $ . . O : > : # @                                   ",
"                            e.          ` I.g       @ # #                                       ",
"                                        t.7.                                                    ",
"                                                                                                ",
"                                                                                                ",
"                                                                                                ",
"                                                                                                "
};
