/* XPM */
static char *result[] = {
/* columns rows colors chars-per-pixel */
"69 63 28 1 ",
"  c #040303",
". c #010407",
"X c #0F1216",
"o c #1A1919",
"O c #341A12",
"+ c #001F24",
"@ c #3D3C3C",
"# c #004D53",
"$ c #005E68",
"% c #4E4E4E",
"& c #486074",
"* c DimGray",
"= c #DA147A",
"- c #9E5A44",
"; c #EECB00",
": c #F64EA5",
"> c #008691",
", c #7C90A0",
"< c #00DFF3",
"1 c #00E0F3",
"2 c #7CF4FF",
"3 c #EBAA94",
"4 c #B4C2CE",
"5 c #D7D7D7",
"6 c #F9D5C8",
"7 c #DFE4E9",
"8 c #F8F8F8",
"9 c None",
/* pixels */
"99999999999999999999999999999+++9999999999999999999999999999999999999",
"9999999999999999999999999999+>>#  99999999999999999999999999999999999",
"9999999999999999999999999999+<> = +++9++99999999999999999999999999999",
"999999999999999999999999999+>< : ><>+++>+  +++99999999999999999999999",
"999999999999999999999999999+<< = 2###<>#>+= ##+9999999999999999999999",
"99999999999999999999999999+><>  2#2<#2<#<>+: >+9999999999999999999999",
"99999999999999999999999999+<<>+2#22<##2##>+= >+9999999999999999999999",
"9999999999999999999999999+<2>#+<#2<#>#<##>+  >#+999999999999999999999",
"99999999999999999999999++<22> +>#<#>++>#>#>+#>#+999999999999999999999",
"9999999999999999999999+><22> o +<>++-3+>++#+>>>+999999999999999999999",
"9999999999999999999+++<22<<+ =o+<+--333++-++#<>$+99999999999999999999",
"9999999999999999+++<<22<>++9 %:+2+...363...9+<>#+++999999999999999999",
"99999999999+++++><<<<>+++999 @=+<+.5#6665#.9+#<>+>$++9999999999999999",
"999999999++>><222<>+++999999  o+>+58>6638>+99++<>>>#++++9999999999999",
"9999999++><<<22<<++99999999999  ++36666-3O99999+++#<<>##+++9999999999",
"99999++<<<222<>++999999999999999 O-366-3O999999999++++++>>OOO99999999",
"9999+><<222<>++9999999999999999999OO-33O999999999999  >+OO3-O+9999999",
"999+><<22<<++99999999999999999999XXXOOO9999999999   oo1+63-O>>+999999",
"999+<<22<<+9999999999999999999999X,++,XOOOOO++   %%@@oo1+6OOO>>+99999",
"99+><22<<+999999999999999999999OX>+1>+#X6633+>@%%@@@ooo>+36-3OO>+9999",
"99+<22<<+999999999999999999999O3X+&++&+X-3--+#o@@oooooo#+O-3--O>>+999",
"9+><22<<+99999999999999999999O36X4,+>+&X-OOO++         ++9OO33O>>#+99",
"9+<22<<+999999999999999999999O63X74+>+,XO9999999999999999999OO<>>>+99",
"9+<22<<+99999999999999999999O63OX77+1+;;X99999999999999999999+><>>#+9",
"9+<22<>+9999999999999999999O66-OX47+1+77X99999999999999999999+#<>>>+9",
"+><22<+9999999999999999999+33-O9X&4+1>+4X999999999999999999999+><>>+9",
"+<22<<+999999999999999999+1+-O999X4 o1+4X999999999999999999999+><>>#+",
"+<22<>+9999999999999999  @@>+9999X7+11+4,X99999999999999999999+><>>#+",
"+<22<>+999999999999999 o*%o+99999X4 o1+4,X99999999999999999999+#<>>>+",
"+<22<>+9999999999999  @*%@ 999999X4+>1+,,&X9999999999999999999+#>>>>+",
"+<22<>+999999999999 o@*%% 9999999X,&+>+,&,&X999999999999999999+#>>>>+",
"+<22<<>+9999999999+1@%%@o 999999X&,,+>+&,&&&X99999999999999999+#>>>>+",
"+<<2<<<+999999OOOOO+2@@o 9999999X,,&&+oXX&&X999999999999999999+#>>>>+",
"+<<2<<<>+99999O36633+1o 9999999X&&&,Xo@@oXXo 99999999999999999+#>#>>+",
"+<<<2<<<>+99999OOOO-+>+999999999XX&&X%%@@%@@o 9999999999999999+>>#>#+",
"+><<<<<>>>+9999OOOOO3+999999999 o@XXo@**%@*%@>+99999999999999+#>##>#+",
"9+<<<>>+++++9999OO9O-O999999999 @*@*@@%%@o@>#++99999999999999+##+>#+9",
"9+<<<<>>+99999999999OO++999999 o%%o%%o@2<<>++O99999999999999+#++#>#+9",
"9+><<<<<>+++999999999+#+999999+>>><22<2++++3-O9999999999999+++9+>##+9",
"99+><<<<<<>>+++++++++#+9999999+++++++++9O33-#+99999999999999999+##+99",
"999++><<<<<<>>>>>>>>#+999999999O3663-O99+><>o 999++99999999999+###+99",
"99999++>><<>>>>>>>#++9999999999+><<<>+99 o@oo 999+#++9999999++###+999",
"9999999++++>>>>>#++9999999999999 o@oo 99 @%@o 9999++#+++++++####+9999",
"99999999999++++++999999999999999 @%%o 999 %%o 999999++########++99999",
"99999999999999999999999999999999 %*@ 9999 @%@ 99999999++++++++9999999",
"99999999999999999999999999999999 **o 9999 @%@o 9999999999999999999999",
"9999999999999999999999999999999 @*% 999999 *%o 9999999999999999999999",
"99999999999999999999999999999  o%%@ 999999 o%o 9999999999999999999999",
"9999999999999999999999999999 o@@%o 99999999 %@ 9999999999999999999999",
"999999999999999999999999999 o%%@@ 999999999 @@o 999999999999999999999",
"999999999999999999999999999 %*@@ 9999999999 o%@ 999999999999999999999",
"99999999999999999999999999 @*%o 999999999999 *@ 999999999999999999999",
"99999999999999999999999999 %%@ 9999999999999 @@o 99999999999999999999",
"9999999999999999999999999 @*@ 999999999999999 @@ 99999999999999999999",
"9999999999999999999999999 %% 99999999999999999 %@ 9999999999999999999",
"999999999999999999999999 @*o 99999999999999999 %@ 9999999999999999999",
"999999999999999999999999 %% 999999999999999999 o@o 999999999999999999",
"99999999999999999999999 @%o 9999999999999999999 @@ 999999999999999999",
"99999999999999999999999 %%  9999999999999999999 %@o 99999999999999999",
"9999999999999999999999 o%%%@ 99999999999999999 o*%o 99999999999999999",
"9999999999999999999999 @%%@@o 9999999999999999 @@oo 99999999999999999",
"9999999999999999999999+><<<>#+9999999999999999+><>#+99999999999999999",
"99999999999999999999999+++++++99999999999999999++++999999999999999999"
};
