/* XPM */
static char *result[] = {
/* columns rows colors chars-per-pixel */
"69 63 28 1 ",
"  c #040303",
". c #010407",
"X c #0F1216",
"o c #1A1919",
"O c #341A12",
"+ c #001F24",
"@ c #3D3C3C",
"# c #004D53",
"$ c #005E68",
"% c #4E4E4E",
"& c #486074",
"* c DimGray",
"= c #DA147A",
"- c #9E5A44",
"; c #EECB00",
": c #F64EA5",
"> c #008691",
", c #7C90A0",
"< c #00DFF3",
"1 c #00E0F3",
"2 c #7CF4FF",
"3 c #EBAA94",
"4 c #B4C2CE",
"5 c #D7D7D7",
"6 c #F9D5C8",
"7 c #DFE4E9",
"8 c #F8F8F8",
"9 c None",
/* pixels */
"9999999999999999999999999999999999999+++99999999999999999999999999999",
"99999999999999999999999999999999999  #>>+9999999999999999999999999999",
"99999999999999999999999999999++9+++ = ><+9999999999999999999999999999",
"99999999999999999999999+++  +>+++><> : <>+999999999999999999999999999",
"9999999999999999999999+## =+>#><###2 = <<+999999999999999999999999999",
"9999999999999999999999+> :+><#<2#<2#2  ><>+99999999999999999999999999",
"9999999999999999999999+> =+>##2##<22#2+><<+99999999999999999999999999",
"999999999999999999999+#>  +>##<#>#<2#<+#>2<+9999999999999999999999999",
"999999999999999999999+#>#+>#>#>++>#<#>+ >22<++99999999999999999999999",
"999999999999999999999+>>>+#++>+3-++><+ o >22<>+9999999999999999999999",
"99999999999999999999+$><#++-++333--+<+o= +<<22<+++9999999999999999999",
"999999999999999999+++#><+9...363...+2+:% 9++><22<<+++9999999999999999",
"9999999999999999++$>+><#+9.#5666#5.+<+=@ 999+++><<<<>+++++99999999999",
"9999999999999++++#>>><++99+>8366>85+>+o  999999+++><222<>>++999999999",
"9999999999+++##><<#+++99999O3-66663++  99999999999++<<22<<<>++9999999",
"99999999OOO>>++++++999999999O3-663-O 999999999999999++><222<<<++99999",
"9999999+O-3OO+>  999999999999O33-OO9999999999999999999++><222<<>+9999",
"999999+>>O-36+1oo   9999999999OOOXXX99999999999999999999++<<22<<>+999",
"99999+>>OOO6+1oo@@%%   ++OOOOOX,++,X9999999999999999999999+<<22<<+999",
"9999+>OO3-63+>ooo@@@%%@>+3366X#+>1+>XO999999999999999999999+<<22<>+99",
"999+>>O--3-O+#oooooo@@o#+--3-X+&++&+X3O999999999999999999999+<<22<+99",
"99+#>>O33OO9++         ++OOO-X&+>+,4X63O99999999999999999999+<<22<>+9",
"99+>>><OO9999999999999999999OX,+>+47X36O999999999999999999999+<<22<+9",
"9+#>><>+99999999999999999999X;;+1+77XO36O99999999999999999999+<<22<+9",
"9+>>><#+99999999999999999999X77+1+74XO-66O9999999999999999999+><22<+9",
"9+>><>+999999999999999999999X4+>1+4&X9O-33+9999999999999999999+<22<>+",
"+#>><>+999999999999999999999X4+1o 4X999O-+1+999999999999999999+<<22<+",
"+#>><>+99999999999999999999X,4+11+7X9999+>@@  9999999999999999+><22<+",
"+>>><#+99999999999999999999X,4+1o 4X99999+o%*o 999999999999999+><22<+",
"+>>>>#+9999999999999999999X&,,+1>+4X999999 @%*@  9999999999999+><22<+",
"+>>>>#+999999999999999999X&,&,+>+&,X9999999 %%*@o 999999999999+><22<+",
"+>>>>#+99999999999999999X&&&,&+>+,,&X999999 o@%%@1+9999999999+><<22<+",
"+>>>>#+999999999999999999X&&XXo+&&,,X9999999 o@@2+OOOOO999999+<<<2<<+",
"+>>#>#+99999999999999999 oXXo@@oX,&&&X9999999 o1+33663O99999+><<<2<<+",
"+#>#>>+9999999999999999 o@@%@@%%X&&XX999999999+>+-OOOO99999+><<<2<<<+",
"+#>##>#+99999999999999+>@%*@%**@oXX@o 999999999+3OOOOO9999+>>><<<<<>+",
"9+#>+##+99999999999999++#>@o@%%@@*@*@ 999999999O-O9OO9999+++++>><<<+9",
"9+#>#++#+99999999999999O++><<2@o%%o%%o 999999++OO99999999999+>><<<<+9",
"9+##>+9+++9999999999999O-3++++2<22<>>>+999999+#+999999999+++><<<<<>+9",
"99+##+99999999999999999+#-33O9+++++++++9999999+#+++++++++>><<<<<<>+99",
"99+###+99999999999++999 o><>+99O-3663O999999999+#>>>>>>>><<<<<<>++999",
"999+###++9999999++#+999 oo@o 99+><<<>+9999999999++#>>>>>>><<>>++99999",
"9999+####+++++++#++9999 o@%@ 99 oo@o 9999999999999++#>>>>>++++9999999",
"99999++########++999999 o%% 999 o%%@ 999999999999999++++++99999999999",
"9999999++++++++99999999 @%@ 9999 @*% 99999999999999999999999999999999",
"9999999999999999999999 o@%@ 9999 o** 99999999999999999999999999999999",
"9999999999999999999999 o%* 999999 %*@ 9999999999999999999999999999999",
"9999999999999999999999 o%o 999999 @%%o  99999999999999999999999999999",
"9999999999999999999999 @% 99999999 o%@@o 9999999999999999999999999999",
"999999999999999999999 o@@ 999999999 @@%%o 999999999999999999999999999",
"999999999999999999999 @%o 9999999999 @@*% 999999999999999999999999999",
"999999999999999999999 @* 999999999999 o%*@ 99999999999999999999999999",
"99999999999999999999 o@@ 9999999999999 @%% 99999999999999999999999999",
"99999999999999999999 @@ 999999999999999 @*@ 9999999999999999999999999",
"9999999999999999999 @% 99999999999999999 %% 9999999999999999999999999",
"9999999999999999999 @% 99999999999999999 o*@ 999999999999999999999999",
"999999999999999999 o@o 999999999999999999 %% 999999999999999999999999",
"999999999999999999 @@ 9999999999999999999 o%@ 99999999999999999999999",
"99999999999999999 o@% 9999999999999999999  %% 99999999999999999999999",
"99999999999999999 o%*o 99999999999999999 @%%%o 9999999999999999999999",
"99999999999999999 oo@@ 9999999999999999 o@@%%@ 9999999999999999999999",
"99999999999999999+#><>+9999999999999999+#><<<>+9999999999999999999999",
"999999999999999999++++99999999999999999+++++++99999999999999999999999"
};
