/* XPM */
static char *result[] = {
/* columns rows colors chars-per-pixel */
"48 48 42 1 ",
"  c gray84",
". c #D7D7D7",
"X c #D8D8D8",
"o c gray85",
"O c #DADADA",
"+ c gray86",
"@ c gainsboro",
"# c #DDDDDD",
"$ c gray87",
"% c #DFDFDF",
"& c gray88",
"* c #E1E1E1",
"= c #E2E2E2",
"- c gray89",
"; c #E4E4E4",
": c gray90",
"> c #E6E6E6",
", c #E7E7E7",
"< c gray91",
"1 c #E9E9E9",
"2 c #EAEAEA",
"3 c gray92",
"4 c #ECECEC",
"5 c gray93",
"6 c #EEEEEE",
"7 c #EFEFEF",
"8 c gray94",
"9 c #F1F1F1",
"0 c gray95",
"q c #F3F3F3",
"w c #F4F4F4",
"e c gray96",
"r c #F6F6F6",
"t c gray97",
"y c #F8F8F8",
"u c #F9F9F9",
"i c gray98",
"p c #FBFBFB",
"a c gray99",
"s c #FDFDFD",
"d c #FEFEFE",
"f c white",
/* pixels */
"X...............................................",
".........               .. .. ...  ..   .... ...",
"..-,111=114225q98282624r;,2;;7%@*52&&4r8,,>13=.X",
"..$4<4646286779uq349pw0sie74,-21,234:9p427569-..",
"..$118613&-3543085:807psq>qe:q3325227ep>2800q=..",
"..&2<67,,:2-=<860w659qyui4>0997537794rs<1,26r-..",
"..&6889;*>>=2>3,99q3;76edt36967677798yw6:&<97%..",
"..&588e5<>;>326,67ue:221riy8>55q96990w7437346*..",
"..%50et05,;,><4168tq73*24eds8>17769qee9739126%..",
"..+>50rq85<<;-,3658q467,588ap4539q9rst4230r11%..",
"..@,67w97411,:>343w26w93,51wi9qqqetyee7q93r08%..",
"..#387841-=<,<,2368q939e5>-7ya7i98ai0w5ey4359*..",
"..&<2qe983-;<%=15qrwq:26<<>28eayeie077929te79-..",
"..&><68i7,61,2:=28,493,-421,3eufiyr09575858ew&..",
"..$=<7w95442<&->-,31<3211<52,6rp07ep786<3760q=..",
"..$*<9y9q7,4<163;,::>3,;1<9e9wsq569app0433075%..",
"..$:,37ew5,<46564*:;,><<44qyuuy3>319ty0yt8358&..",
"..$32,86qt8,4495,3=;2;11,6q0736,&<696w59wr5><#..",
"..-2>227315689tt9679615-11671,1>23,5459ew8393@..",
"..-752,244462<>;>6w>42>321451<2:>31>499887<2,@..",
"..=6834<<<17699411942<1266763,551<36406364<<:@..",
"..>9003<43,,1<,<11,8424<,2564<353479896686,;=O..",
"..<e0082>,,,<2<<,-<60t9099763,626ee0980978<;;O..",
"..2ar807<,>%>42<22322e0898447661345r5594,5:%-+..",
"..*8yu98493:-422489rep831595,<,7634<q78211,<;O..",
"..*<>8raiq9yw:;769y0;i97935963:;=*=-<13,-;<;*O..",
"..$:,>7t135563,6wyrpe85wq988886*11%>&>,,=:;:;+..",
"..;1=%51q6=:64we5iqrrq7789900965=&-@=1>2,377-O..",
"..*2**4q3335353886693q50877er771;-,3,3>446<31@..",
"..#:,>*546q12<<8qtr79wt00rq78854:&%*<2;5547<3#..",
"..$<,;=&5ew733>>$&e97654680w6978<=-:<:6283<1=+..",
"..=22,,#;345r6<%1,e5,>=+o=62709w6>*&1-,:63<1>+..",
"..->2<:>-#:16131&>153,>,$%+04;9yu91-%<5>27123O..",
"..%*243%;;=<8e3>-,-21-*&%$;+>&%=360q561465808+..",
"..&;<1,:;*::08t6*=>1<2<%&*#;-<;#;<0q2q6079ai8@..",
"..%1,<4;&=;X1q9a<-=22,,*:#%%$#>#128<-<=waads6#..",
"..%223;,;:>$=39q1=&53=>*=>;:;;&*:4p8>;-$;=o;1+..",
"..%,,1341<<,1=5r22%;:-<;,===*97255e4:%:<>651<@..",
"..#=:2,,4<474:37<wq52<4686qq109r,<>y0ewu5;978$..",
"..%1<,;><768;;*>30942->2=,2007wq5*1sp92tupi9q-..",
"..@->1##$*;*,>#*;%:>,;1345;5r00q165t0,90><232%..",
"..#$%->;%;3:;1:=*=41>,0q><=:<>21;&3998r3,,32;#..",
"..$*1,:6&%168>;<,=%8q=81->**>:<-5972,515522,-O..",
"..->>1-;3;-,<1;>2*&,yi;4<,**:-::42<:12151>-,3%..",
"X.-149113==&>42251,%2y6576<,1,478<;*-=::$*11<$.X",
"X.=23:,1;-%%&-<<>37>o>3:<33112363-=$=*:$X#O%;&.X",
"...  ............  ... ..  .     ...............",
"................................................"
};
