/* XPM */
static char *_ee58e4ba51f4e24ee32aa2f17729f41XLwZM8UvGkXqxnOk[] = {
/* columns rows colors chars-per-pixel */
"48 48 64 1 ",
"  c #848587",
". c #89898B",
"X c #8C8C8F",
"o c #8D8E90",
"O c #939393",
"+ c #939395",
"@ c gray58",
"# c #979797",
"$ c #989898",
"% c #9A9A9A",
"& c #9B9B9B",
"* c gray61",
"= c gray62",
"- c #9F9F9F",
"; c #A0A0A0",
": c #A2A2A2",
"> c #A3A3A6",
", c #A4A4A4",
"< c #A7A7A7",
"1 c #A7A7A9",
"2 c #A7A8AA",
"3 c #A9A9AB",
"4 c #ACACAC",
"5 c #AEAEAE",
"6 c #AFB0B2",
"7 c gray69",
"8 c #B2B2B2",
"9 c #B4B4B4",
"0 c #B6B6B6",
"q c #B7B7B7",
"w c gray73",
"e c #BBBBBB",
"r c #BCBCBC",
"t c gray",
"y c gray75",
"u c #C0C0C0",
"i c #C3C3C3",
"p c gray77",
"a c gray78",
"s c #C8C8C8",
"d c #CBCBCB",
"f c #CBCBCD",
"g c #CCCDCF",
"h c #D0D0D2",
"j c #D2D3D5",
"k c #D6D6D8",
"l c gray85",
"z c #DADADA",
"x c #DDDDDD",
"c c gray87",
"v c gray88",
"b c #E2E2E2",
"n c gray89",
"m c gray90",
"M c #E6E6E6",
"N c #E7E7E7",
"B c gray91",
"V c gray92",
"C c #ECECEC",
"Z c #EEEEEE",
"A c #EFEFEF",
"S c gray94",
"D c #F1F1F1",
"F c #F3F3F3",
/* pixels */
"kDDADDDDDDDDDDDD3#OO#$vSSSSSSSSSSFSSFFAASSSSSSFS",
"fBBBBBBBBBBBBNBBw3##**zBBBBBBBBBBBBBSFmNVBBVBBBB",
"3rrrrrrrrrrrrrruBS1O8rrrrrrrrrrrrrrrNA5$9rrrrrrr",
"3wwrwrwrrrppppurBS3#0rrrrrrrrwrwrrrrvN4-9rrrerre",
"3rrrrrrrrrNDDDsrBS4@9rrrrrrrrrrrrrrrrrrrrrrrrrre",
"1rrrrrrrurnNABprcB4O9rrrrrrrrrrrrrrrrrrrrrrrrrre",
"1rrrrwrrrwurwurrrr:#0rrrrrrrrrrrrrrrrrrrrrrrrrre",
"1rrrppw0rwrrrrrrpp*$9rrrrrrrrrrrrrrrryppq9rrrrre",
"1rrrNA5$0rrrrrrrNS4@9rrrrrrrrrrrrrrrryNS7$9rrere",
"1rrrnB5*0rrrrrrrcB4#9rrrrrrrrrrrrrrrryNS4@9rrerr",
"1rrrrurwrrwrrrrrrr*$9rrrrrrrrrrrrrrrrrBD4@9rrrrr",
"1rrrrrrrrrrrrrrr0w*@79wr09rrrrrrrrrrrrNB7*9rrrrr",
"2wwwrrwwrrwwrrww:@@@@$9r*$0rrrrrrrrrrryyqrrrrrrr",
">0000000000000w0-@@@O$49*#7qqqqwqqqqqqqqqqqqqqqq",
".###$###$###$##$@@@@$@@$@@$$@#$$$@$@$$$$$$$#$$#$",
"+:::::::::::::*:-:----::,**:##@@@@--,--,-::-::--",
"jBACACACSBCABACCSAAASCASCCSC4#@@@$cVCSACSCSCACCC",
"hACACSBACACAFDSCACCCACCCCASC9*$@$$cACCACCCACCCSC",
"7urrrurrurruBDduurrrruurrrruNA4@8ryyyryryyyyyyyy",
"<rrwrrrrrrrwNAsrrrrrwrrrrrruND4@qrrrrrrrrryyyrre",
"<wrrrrrrrrrrrrrrrrrrrrrrrrrrBS4@9rrrrrrrrymVaere",
"3wrrrrrrrrrrrrrrrrrrrrrrrrrrBS4@9rrrrrrrryNCarre",
"1rrrrrrrrrrrrrrrrrrrrrrrrrrrBD4@9rrrrrrryqyyrrre",
">rrrrrrrrrrrrrrrrrrrrrrrrrrrBS4@9rrrrerrrrrrrrrr",
"3rrrrrrrrrrrrrrrrrrrrrrrrrrrBD5@9rrrrrrrrrrrrerr",
"1rrruuwwrwrrrrrrrrrrrrrrrrrrBF4@9rrryyrrrrrrrrrr",
"1rrrNB5$$$9rrrrrrrrrrrrrrrruBS4#9rryNVarrrrrrerr",
">rrrNA5$@$8rrrrrrrqwrqrrrrrrnC4@9rrrmVarrrrrrrrr",
"3rrrwpwqwqrrrrrrrr-$$$9rrrrr>-$$$$9ryyrrrrrrrrrr",
"<wwrwwww0wwrrqrwwq-@@@7qrrq0*$@@@$7ereeqqrrqqrrq",
".#$$$$$$$$$$$$$$$$@@@@$$$$$$@#@@@@$&$&$&$$$$$$$*",
"o#*$**$$$$$@@@@@*$*$$*$*$**$$$$$$$$$$&$&**$$*$&$",
"gBBBBBBBAB4++OO#zNNBBBBBBBBBNBBBCBBBBBBBBBBBBBBB",
"jDDDSDDDAA8##@##cSSSSSAASSSSFFSSSSSSAASSSDAASSSS",
"6puppuupupnN3#50upiipiiiipupBSq<rpiiiipppiiiiipi",
"1wrrrrrrruNS4@9weeeeeeeeerryBS7$9reeerereeeerrrr",
"1rrrrrrrrrBD4#9rerrrrrrrrrrryprqerrrrrrrrerrrrre",
"1wrrrrrrrrNS4@0rrrrrrrrrrrrrrrrrrrrrrryyryewrrre",
"1rnBprrrrrpp*#9rrrrrrrrrrrrrrrrrrrrrrynNCB7*9rre",
"1rNAsrrrrrrr-@0rerrrrrrrrrrrrrrrrrrrrrNDDS5@9ere",
"<rpprrrrrrrr*@0rrrrrrrrrrrrrrrrrrrrrrrppapwqeere",
"3rrrrrrrrrrr*#9rrrrrrrrrrrrrrrrrrrrrrwrrrrrrrere",
"<rrrrrrrrwrw*#0rrrrrrrrrrrrrrrrrrrerrrerrrrrrwre",
">rrrrwrwrrrw*@8wwrrrrrrrrrrrrrrrrrrrrrrrrrrrrrre",
"3rrr>*qrrw,*#@*$9rrrrrrrrrrrrrrrrr>-0rrrrrrrrrrr",
"2rrr*#9rrw*O@O@#8rreeerreeeeeeeeeq-$9rreeeereeee",
"X**-$#****#OOO@O&*****************$@**-**-*-****",
" @@#@@@@O#@OOOOOO@#@@@O@@O@@@@@#@OOOOO@OO@@@@@@@"
};
