/* XPM */
static char *result[] = {
/* columns rows colors chars-per-pixel */
"48 48 81 1 ",
"  c #0F1D0B",
". c #191919",
"X c #12210D",
"o c #15270F",
"O c #182C11",
"+ c #1F3A16",
"@ c #2B281B",
"# c #342919",
"$ c #213E17",
"% c #2A3218",
"& c gray15",
"* c #2C2C2C",
"= c #373737",
"- c #403629",
"; c #453928",
": c #26471B",
"> c #284A1C",
", c #375A1F",
"< c #3A611F",
"1 c #2F5821",
"2 c #346024",
"3 c #3A6B29",
"4 c #3A6C29",
"5 c #3C702A",
"6 c #3F792D",
"7 c #524127",
"8 c #435025",
"9 c #4D463B",
"0 c #6A522E",
"q c #6F5734",
"w c #427F2F",
"e c #5C6E34",
"r c gray27",
"t c #5D5447",
"y c #565656",
"u c #62664B",
"i c #7A664A",
"p c #766C58",
"a c #626262",
"s c #6C6C6C",
"d c #786F63",
"f c gray48",
"g c #85765C",
"h c #847C71",
"j c #458932",
"k c #468C32",
"l c #468D32",
"z c #5E883C",
"x c #539937",
"c c #5AA53E",
"v c #738B40",
"b c #6C9D45",
"n c #73AB4B",
"m c #65B344",
"M c #7DBC4D",
"N c #8D8069",
"B c #A9B77A",
"V c #94C657",
"C c #9FC75B",
"Z c #B0D262",
"A c #818181",
"S c #8E8E8E",
"D c #948C82",
"F c gray59",
"G c #A4A38A",
"H c #AFA694",
"J c #A7A7A7",
"K c #AFAFAF",
"L c #B9B9B9",
"P c gray76",
"I c #DDD3C0",
"U c #D5D5D5",
"Y c #D8D8D8",
"T c #E2EFC6",
"R c #E2E8D9",
"E c #EDF5D9",
"W c gray88",
"Q c #EAEAEA",
"! c gray96",
"~ c #FFFFFA",
"^ c None",
/* pixels */
"^^^^^^^^^^^^^^^^^^^^^^^^^^^^^^^^^^^^^^^^^^^^^^^^",
"^^^^^^^^^^^^^^^^^^^^^^^^^^^^^^^^^^^^^^^^^^^^^^^^",
"^^^^^^^^^^^^^^^^^^^^^^^^^^^^^^^^^^^^^^^^^^^^^^^^",
"^^^^^^^^^^^^^^^^^^^^^^^^^^^^^^^^^^$=^^^^^^^^^^^^",
"^^^^^^^^^^^^^^^^^^^^^^^^^^^^^^^^^*3:^^^^^^^^^^^^",
"^^^^^^^^^^^^^^^^^^^^^^^^^^^^^^^^^$4:^^^^^^^^^^^^",
"^^^^^^^^^^^^^^^^^^^^^^^^^^1X^^^^^141^^^^^^^^^^^^",
"^^^^^^^^^^^^^^^^^^^^^^^^^^51*^^^*341^^^&>>+^^^^^",
"^^^^^^^^^^^^^^^^^^^^^^^^^^44>^^^:441=:1342o^^^^^",
"^^^^^^^^^^^^^^^^^^^^^^^^^^343*^*544114442 ^^^^^^",
"^^^^^^^^^^^^^^^^^^^^^^^^^^444>&564413442O^^^^^^^",
"^^^^^^^^^^^^^^^^^^^^^^^^^^54411k6441442r^^^^^^^^",
"^^^^^^^^^^^^^^^^^^^^^^^^^=6431kk544242=^^^^^^^^^",
"^^^^^^^^^^^^^^^^^^^^^^^^^&641jkw44443%^^^^^^^^^^",
"^^^^^^^^^^^^^^^^^^^^^^^^^=626k643<<,+&^^^^^^^^^^",
"^^^^^^^^^^^^^^^^^^^^^^^^^255w5<35wjkk1^^^^^^^^^^",
"^^^^^^^^^^^^^^^^^^^^^^^^^4453kclkkkkk3^^^^^^^^^^",
"^^^^^^^^^^^^^^^^^^^^^^^^=w6xmmxkk6jkk6^^^^^^^^^^",
"^^^^^^^^^^^^^^^^^^^^^^^^6cmmmckkkj5kk6^^^^^^^^^^",
"^^^^^^^^^^^^^^^^^^^^^^^1mMmmmlkkl6$jk5y^^^^^^^^^",
"^^^^^^^^^^^^^^^^^^^^^^*nCCmmlkl6:^^352^^^^^^^^^^",
"^^^^^^^^^^^^^^^^^^^^^^vZZCmxkl2^^^^142^^^^^^^^^^",
"^^^^^^^^^^^^^^^^^^^^^eZZZZVll3^^^^^*31^^^^^^^^^^",
"^^^^^^^^^^^^^^^^^^^^=DGTICnb2^^^^^^^>>^^^^^^^^^^",
"^^^^^^^^^^^^^^^^^^^=aDY~EBnz^^^^^^^^&%^^^^^^^^^^",
"^^^^^^^^^^^^^^^^^^^LhP~~~Qb=^^^^^^^^^^^^^^^^^^^^",
"^^^^^^^^^^^^^^^^^^SPW~~~~R8^^^^^^^^^^^^^^^^^^^^^",
"^^^^^^^^^^^^^^^^^rDK~~~Q!A^^^^^^^^^^^^^^^^^^^^^^",
"^^^^^^^^^^^^^^^^*phQ~!!YJ^^^^^^^^^^^^^^^^^^^^^^^",
"^^^^^^^^^^^^^^^*AW!~!YIP^^^^^^^^^^^^^^^^^^^^^^^^",
"^^^^^^^^^^^^^^^J!~~~Y~Wr^^^^^^^^^^^^^^^^^^^^^^^^",
"^^^^^^^^^^^^^^F~~~~~QLs^^^^^^^^^^^^^^^^^^^^^^^^^",
"^^^^^^^^^^^^^f!~~~UUu-^^^^^^^^^^^^^^^^^^^^^^^^^^",
"^^^^^^^^^^^^aQ~~~Udu-^^^^^^^^^^^^^^^^^^^^^^^^^^^",
"^^^^^^^^^^^rW~~~~Dd9*^^^^^^^^^^^^^^^^^^^^^^^^^^^",
"^^^^^^^^^^=U!UG~~Yp*^^^^^^^^^^^^^^^^^^^^^^^^^^^^",
"^^^^^^^^^^uGNNIQLN=^^^^^^^^^^^^^^^^^^^^^^^^^^^^^",
"^^^^^^^^^#gipNHDN9^^^^^^^^^^^^^^^^^^^^^^^^^^^^^^",
"^^^^^^^^=0qqqNNNu^^^^^^^^^^^^^^^^^^^^^^^^^^^^^^^",
"^^^^^^^^*-;0qigg*^^^^^^^^^^^^^^^^^^^^^^^^^^^^^^^",
"^^^^^^^-#---;qiu^^^^^^^^^^^^^^^^^^^^^^^^^^^^^^^^",
"^^^^^^-;.#---0p=^^^^^^^^^^^^^^^^^^^^^^^^^^^^^^^^",
"^^^^^^^^yt#--0;^^^^^^^^^^^^^^^^^^^^^^^^^^^^^^^^^",
"^^^^^^^=pt=@.=^^^^^^^^^^^^^^^^^^^^^^^^^^^^^^^^^^",
"^^^^^^^99^^7*^^^^^^^^^^^^^^^^^^^^^^^^^^^^^^^^^^^",
"^^^^^^^^^^^=^^^^^^^^^^^^^^^^^^^^^^^^^^^^^^^^^^^^",
"^^^^^^^^^^^^^^^^^^^^^^^^^^^^^^^^^^^^^^^^^^^^^^^^",
"^^^^^^^^^^^^^^^^^^^^^^^^^^^^^^^^^^^^^^^^^^^^^^^^"
};
